<svg width="90" height="90" viewBox="0 0 90 90" fill="none" xmlns="http://www.w3.org/2000/svg">
<path fill-rule="evenodd" clip-rule="evenodd" d="M30 39.5082C30 37.8162 31.3432 36.4446 33 36.4446H33.03C34.6868 36.4446 36.03 37.8162 36.03 39.5082C36.03 41.2001 34.6868 42.5717 33.03 42.5717H33C31.3432 42.5717 30 41.2001 30 39.5082ZM42 39.5082C42 37.8162 43.3431 36.4446 45 36.4446H45.03C46.6869 36.4446 48.03 37.8162 48.03 39.5082C48.03 41.2001 46.6869 42.5717 45.03 42.5717H45C43.3431 42.5717 42 41.2001 42 39.5082ZM57 36.4446C55.3431 36.4446 54 37.8162 54 39.5082C54 41.2001 55.3431 42.5717 57 42.5717H57.03C58.6869 42.5717 60.03 41.2001 60.03 39.5082C60.03 37.8162 58.6869 36.4446 57.03 36.4446H57ZM29.8025 15C29.8681 15 29.934 15 30 15H60.1974C62.8569 14.9999 65.1483 14.9997 66.9834 15.2517C68.9499 15.5217 70.8351 16.1305 72.3639 17.6919C73.893 19.2532 74.4891 21.1782 74.7537 23.1864C75.0003 25.0602 75.0003 27.4002 75 30.116V48.9003C75.0003 51.6161 75.0003 53.956 74.7537 55.83C74.4891 57.8381 73.893 59.7632 72.3639 61.3244C70.8351 62.8859 68.9499 63.4946 66.9834 63.7648C65.1483 64.0166 62.8569 64.0166 60.1974 64.0163H51C50.6592 64.0163 50.3271 64.1266 50.0514 64.3312L36.827 74.1526C33.9857 76.2627 30 74.1902 30 70.6025V64.0163C27.6781 64.0163 25.3235 64.0815 23.0166 63.7648C21.0501 63.4946 19.1651 62.8859 17.636 61.3244C16.1071 59.7632 15.5108 57.8381 15.2465 55.83C14.9997 53.956 14.9999 51.6161 15 48.9003V30.3176C15 30.2502 15 30.1829 15 30.1159C14.9999 27.4002 14.9997 25.0602 15.2465 23.1864C15.5108 21.1782 16.1071 19.2532 17.636 17.6919C19.1651 16.1305 21.0501 15.5217 23.0166 15.2517C24.8516 14.9997 27.1431 14.9999 29.8025 15Z" fill="#CCCCCC"/>
</svg>
