<svg width="90" height="90" viewBox="0 0 90 90" fill="none" xmlns="http://www.w3.org/2000/svg">
<path d="M58.3333 51C62.6282 51.0002 66.7572 52.4926 69.8593 55.166C72.9613 57.8393 74.7969 61.4873 74.9833 65.349L75 66V69C75.0005 70.5137 74.3653 71.9717 73.2217 73.0816C72.078 74.1916 70.5105 74.8715 68.8333 74.985L68.3333 75H21.6667C19.9847 75.0005 18.3648 74.4288 17.1315 73.3995C15.8982 72.3702 15.1428 70.9595 15.0167 69.45L15 69V66C15.0002 62.1346 16.6585 58.4185 19.6289 55.6267C22.5993 52.8348 26.6525 51.1828 30.9433 51.015L31.6667 51H58.3333ZM45 15C49.4203 15 53.6595 16.5804 56.7851 19.3934C59.9107 22.2064 61.6667 26.0218 61.6667 30C61.6667 33.9782 59.9107 37.7936 56.7851 40.6066C53.6595 43.4196 49.4203 45 45 45C40.5797 45 36.3405 43.4196 33.2149 40.6066C30.0893 37.7936 28.3333 33.9782 28.3333 30C28.3333 26.0218 30.0893 22.2064 33.2149 19.3934C36.3405 16.5804 40.5797 15 45 15Z" fill="black"/>
</svg>
