<svg width="90" height="90" viewBox="0 0 90 90" fill="none" xmlns="http://www.w3.org/2000/svg">
<path d="M22 28.3533C22 24.0296 22 21.8678 22.8357 20.2156C23.5707 18.7629 24.7435 17.5818 26.186 16.8416C27.8267 16 29.9733 16 34.2667 16H55.7333C60.0267 16 62.1733 16 63.814 16.8416C65.2565 17.5818 66.4293 18.7629 67.1643 20.2156C68 21.8678 68 24.0296 68 28.3533V68.9059C68 70.7821 68 71.7202 67.6128 72.2336C67.4455 72.4569 67.232 72.6409 66.9871 72.7729C66.7422 72.9049 66.4718 72.9817 66.1945 72.998C65.5543 73.0366 64.78 72.5154 63.2313 71.477L45 59.2356L26.7687 71.4731C25.22 72.5154 24.4457 73.0366 23.8017 72.998C23.525 72.9812 23.2553 72.9041 23.0111 72.7721C22.7669 72.6402 22.554 72.4565 22.3872 72.2336C22 71.7202 22 70.7821 22 68.9059V28.3533Z" fill="#CCCCCC"/>
</svg>
