<svg width="1080" height="276" viewBox="0 0 1080 276" fill="none" xmlns="http://www.w3.org/2000/svg">
<mask id="path-1-inside-1_3_1157" fill="white">
<path d="M0 0H1080V276H0V0Z"/>
</mask>
<path d="M0 1H1080V-1H0V1ZM1080 275H0V277H1080V275Z" fill="#D9D9D9" mask="url(#path-1-inside-1_3_1157)"/>
<path d="M64.8281 94.3594C64.8281 99.5156 67.8281 104.484 74.5781 106.594L71.3906 111.234C66.8672 109.734 63.7031 106.828 61.875 103.078C60.0234 107.391 56.7188 110.766 51.8438 112.406L48.6094 107.719C55.7344 105.328 58.7812 99.6562 58.8281 93.7969V89.9062H64.8281V94.3594ZM83.1094 87.6562V97.6406H88.875V102.609H83.1094V112.969H77.1094V87.6562H83.1094ZM69.1406 113.812C77.9531 113.812 83.5312 116.859 83.5312 122.062C83.5312 127.312 77.9531 130.312 69.1406 130.312C60.1406 130.312 54.5156 127.312 54.5156 122.062C54.5156 116.859 60.1406 113.812 69.1406 113.812ZM69.1406 118.5C63.5156 118.5 60.4688 119.719 60.5156 122.062C60.4688 124.5 63.5156 125.625 69.1406 125.625C74.6719 125.625 77.625 124.5 77.625 122.062C77.625 119.719 74.6719 118.5 69.1406 118.5ZM124.594 87.6562V97.2656H130.359V102.188H124.594V111.609H118.594V87.6562H124.594ZM111.422 90.3281V95.0625H98.3906V105.234C106.102 105.188 110.344 104.906 115.125 103.922L115.734 108.609C110.391 109.828 105.469 110.016 96 110.016H92.3906V90.3281H111.422ZM124.594 113.391V129.797H96.7031V113.391H124.594ZM102.609 118.125V125.109H118.688V118.125H102.609ZM147.938 97.3125C147.891 104.953 151.172 112.688 158.016 115.969L154.406 120.75C149.836 118.5 146.766 114.281 144.984 109.125C143.133 114.656 139.828 119.18 135 121.547L131.297 116.719C138.516 113.391 141.938 105.234 141.938 97.3125V90.9375H147.938V97.3125ZM165.891 87.6562V104.109H172.172V109.172H165.891V130.312H159.891V87.6562H165.891ZM220.5 87.7031V118.828H214.5V87.7031H220.5ZM221.625 124.781V129.562H191.906V115.828H197.953V124.781H221.625ZM201.141 94.1719C201.094 99.7969 204.094 105.328 211.125 107.578L208.078 112.266C203.273 110.672 199.945 107.484 198.047 103.406C196.148 107.789 192.727 111.305 187.734 113.016L184.641 108.281C191.812 105.891 194.906 99.9375 194.906 94.1719V90.0469H201.141V94.1719ZM250.594 92.1094V96.7969H241.969C242.016 101.18 245.25 105.633 252.094 107.391L249.328 111.984C244.477 110.766 241.055 108.07 239.109 104.578C237.258 108.562 233.836 111.68 228.797 113.109L225.984 108.469C232.828 106.523 235.969 101.648 236.016 96.7969H227.438V92.1094H236.016V87.4688H242.062V92.1094H250.594ZM262.219 87.6562V113.438H256.266V103.875H249.328V99.0938H256.266V87.6562H262.219ZM247.641 114.141C256.734 114.188 262.312 117.047 262.359 122.156C262.312 127.312 256.734 130.312 247.641 130.312C238.594 130.312 232.969 127.312 232.969 122.156C232.969 117.047 238.594 114.188 247.641 114.141ZM247.641 118.734C241.969 118.734 238.922 119.859 238.922 122.156C238.922 124.5 241.969 125.766 247.641 125.766C253.406 125.766 256.406 124.5 256.406 122.156C256.406 119.859 253.406 118.734 247.641 118.734Z" fill="#222222"/>
<path d="M58.8633 167.031C58.8633 172.27 61.0078 177.543 65.2969 179.828L63.3281 182.465C60.3574 180.795 58.3359 177.807 57.2461 174.238C56.0684 178.141 53.9062 181.48 50.8477 183.273L48.7383 180.848C53.2383 178.211 55.6289 172.621 55.6289 167.242V161.371H58.8633V167.031ZM76.2656 158.488V189.988H73.0664V173.746H69.2695V188.441H66.0703V159.086H69.2695V171.039H73.0664V158.488H76.2656ZM109.102 183.414V186.227H80.2734V183.414H92.9648V177.895H83.7891V167.875H102.281V163.445H83.7188V160.703H105.586V170.547H87.0938V175.152H106.324V177.895H96.2695V183.414H109.102ZM140.18 174.273V176.98H127.699V183.098H124.324V176.98H111.352V174.273H140.18ZM136.98 186.578V189.32H114.973V180.074H118.312V186.578H136.98ZM125.73 159.227C132.516 159.227 136.91 161.688 136.91 165.625C136.91 169.562 132.516 171.988 125.73 171.988C118.98 171.988 114.516 169.562 114.516 165.625C114.516 161.688 118.98 159.227 125.73 159.227ZM125.73 161.898C121.125 161.898 118.066 163.305 118.102 165.625C118.066 167.91 121.125 169.281 125.73 169.281C130.371 169.281 133.395 167.91 133.395 165.625C133.395 163.305 130.371 161.898 125.73 161.898ZM162.152 163.516C162.152 167.664 165.035 171.496 169.746 173.043L167.953 175.68C164.508 174.467 161.924 172.006 160.57 168.895C159.182 172.428 156.51 175.188 152.836 176.559L151.043 173.887C155.965 172.129 158.812 167.945 158.848 163.234V160.141H162.152V163.516ZM176.039 158.488V166.398H180.609V169.211H176.039V177.508H172.699V158.488H176.039ZM165.879 178.246C172.348 178.246 176.32 180.391 176.32 184.082C176.32 187.809 172.348 189.953 165.879 189.918C159.34 189.953 155.297 187.809 155.297 184.082C155.297 180.391 159.34 178.246 165.879 178.246ZM165.879 180.883C161.309 180.883 158.602 182.078 158.637 184.082C158.602 186.156 161.309 187.281 165.879 187.316C170.414 187.281 173.051 186.156 173.051 184.082C173.051 182.078 170.414 180.883 165.879 180.883ZM207.152 158.488V165.977H211.723V168.754H207.152V176.277H203.812V158.488H207.152ZM197.801 160.562V163.27H187.113V171.953C193.248 171.936 196.711 171.707 200.648 170.934L201.035 173.605C196.781 174.52 193.055 174.66 186.305 174.66H183.809V160.562H197.801ZM207.152 177.824V189.566H187.043V177.824H207.152ZM190.312 180.496V186.895H203.848V180.496H190.312ZM233.414 164.254C233.414 168.508 236.262 172.656 241.008 174.309L239.18 176.91C235.734 175.592 233.168 172.99 231.832 169.703C230.461 173.359 227.771 176.242 224.062 177.648L222.27 175.012C227.156 173.254 230.074 168.895 230.109 164.148V160.422H233.414V164.254ZM248.566 158.523V182.008H245.227V168.438H238.582V165.695H245.227V158.523H248.566ZM249.27 186.613V189.32H228V179.371H231.375V186.613H249.27ZM263.051 164.535C263.051 167.98 265.266 171.461 269.344 173.008L267.586 175.574C264.65 174.449 262.594 172.305 261.469 169.703C260.309 172.639 258.146 175.188 255.105 176.488L253.277 173.887C257.531 172.023 259.816 168.051 259.816 164.535V160.457H263.051V164.535ZM280.277 158.523V177.895H277.113V169.457H273.422V176.91H270.328V159.086H273.422V166.715H277.113V158.523H280.277ZM269.73 178.492C276.305 178.492 280.418 180.637 280.453 184.223C280.418 187.809 276.305 189.953 269.73 189.918C263.156 189.953 259.043 187.809 259.078 184.223C259.043 180.637 263.156 178.492 269.73 178.492ZM269.73 181.059C265.16 181.059 262.348 182.219 262.383 184.223C262.348 186.227 265.16 187.387 269.73 187.352C274.301 187.387 277.078 186.227 277.113 184.223C277.078 182.219 274.301 181.059 269.73 181.059ZM310.617 158.488V176.277H307.312V158.488H310.617ZM289.805 160.316V171.355C294.885 171.32 299.35 170.951 304.078 169.949L304.535 172.727C299.332 173.781 294.586 174.168 289.066 174.168H286.465V160.316H289.805ZM310.617 177.719V189.566H289.98V177.719H310.617ZM293.25 180.355V186.895H307.348V180.355H293.25ZM341.73 158.488V190.059H338.391V158.488H341.73ZM324.891 160.844C329.566 160.844 333.012 165.133 333.012 171.883C333.012 178.668 329.566 182.957 324.891 182.957C320.145 182.957 316.734 178.668 316.734 171.883C316.734 165.133 320.145 160.844 324.891 160.844ZM324.891 163.832C321.973 163.832 319.969 166.926 319.969 171.883C319.969 176.875 321.973 179.969 324.891 179.969C327.773 179.969 329.777 176.875 329.777 171.883C329.777 166.926 327.773 163.832 324.891 163.832ZM374.32 171.812V174.555H367.676V180.391C370.594 180.25 373.529 180.057 376.289 179.758L376.535 182.219C369.609 183.273 362.121 183.344 356.145 183.379L355.723 180.602C358.377 180.602 361.312 180.584 364.336 180.496V174.555H358.008V161.406H374.18V164.113H361.312V171.812H374.32ZM381.598 158.488V190.059H378.258V158.488H381.598ZM412.148 161.512V164.605C412.148 168.508 412.148 172.867 410.953 179.301L407.578 178.949C408.809 172.867 408.809 168.402 408.809 164.605V164.219H389.684V161.512H412.148ZM415.383 182.957V185.734H386.66V182.957H397.594V171.848H400.898V182.957H415.383ZM452.684 158.523V175.996H449.344V158.523H452.684ZM438.023 162.707C437.988 166.891 441.047 170.723 445.863 172.199L444.246 174.836C440.537 173.641 437.777 171.162 436.336 167.945C434.912 171.408 432.1 174.133 428.32 175.398L426.668 172.762C431.59 171.145 434.613 167.066 434.613 162.707V159.648H438.023V162.707ZM452.895 177.719V180.391H448.746V186.895H453.211V189.602H431.273V186.895H435.773V180.391H431.555V177.719H452.895ZM439.078 186.895H445.441V180.391H439.078V186.895ZM472.02 160.387C478.629 160.387 483.656 163.867 483.656 169.176C483.656 174.484 478.629 178 472.02 177.965C465.41 178 460.418 174.484 460.418 169.176C460.418 163.867 465.41 160.387 472.02 160.387ZM472.02 163.094C467.203 163.059 463.582 165.52 463.617 169.176C463.582 172.867 467.203 175.223 472.02 175.223C476.836 175.223 480.422 172.867 480.422 169.176C480.422 165.52 476.836 163.059 472.02 163.094ZM486.504 183.133V185.91H457.676V183.133H486.504ZM514.91 158.523V181.586H511.57V158.523H514.91ZM515.859 186.613V189.32H494.309V179.406H497.684V186.613H515.859ZM500.25 163.375C500.215 167.98 503.168 172.199 508.02 173.887L506.297 176.559C502.658 175.205 499.969 172.533 498.562 169.105C497.174 172.762 494.449 175.697 490.758 177.121L488.965 174.484C493.922 172.656 496.84 168.121 496.84 163.375V160.246H500.25V163.375ZM544.441 158.488V171.039H549.328V173.816H544.441V189.953H541.102V158.488H544.441ZM536.215 161.793C536.18 170.898 532.172 179.02 521.801 184.152L519.938 181.551C527.83 177.613 532.119 171.918 532.805 164.57H521.52V161.793H536.215ZM579.844 183.273V186.051H551.016V183.273H557.906V175.047C555.322 173.623 553.758 171.355 553.758 168.543C553.758 163.586 558.609 160.316 565.359 160.316C572.145 160.316 576.996 163.586 576.996 168.543C576.996 171.32 575.484 173.553 572.953 174.977V183.273H579.844ZM565.359 162.988C560.402 162.988 556.992 165.133 556.992 168.543C556.992 171.918 560.402 174.133 565.359 174.133C570.281 174.133 573.762 171.918 573.762 168.543C573.762 165.133 570.281 162.988 565.359 162.988ZM561.211 183.273H569.578V176.242C568.295 176.576 566.871 176.734 565.359 176.734C563.883 176.734 562.477 176.576 561.211 176.277V183.273ZM587.297 179.441C587.332 174.836 588.703 173.43 591.023 171.988C592.5 171.074 593.625 169.809 593.625 167.945C593.625 165.73 591.938 164.359 589.828 164.359C587.93 164.359 586.102 165.52 585.926 168.121H582.129C582.27 163.656 585.645 161.195 589.828 161.195C594.398 161.195 597.457 163.938 597.457 167.945C597.457 170.758 596.121 172.656 593.871 174.027C591.762 175.293 590.953 176.594 590.883 179.441V179.652H587.297V179.441ZM589.23 187.246C587.859 187.246 586.699 186.121 586.734 184.75C586.699 183.379 587.859 182.254 589.23 182.254C590.566 182.254 591.727 183.379 591.727 184.75C591.727 186.121 590.566 187.246 589.23 187.246Z" fill="#959595"/>
<path d="M878 115L903 138L878 161" stroke="#959595" stroke-width="7" stroke-linecap="round"/>
</svg>
