<svg width="19" height="20" viewBox="0 0 19 20" fill="none" xmlns="http://www.w3.org/2000/svg">
<path d="M13.875 12C15.1635 12.0001 16.4022 12.4975 17.3328 13.3887C18.2634 14.2798 18.8141 15.4958 18.87 16.783L18.875 17V18C18.8752 18.5046 18.6846 18.9906 18.3415 19.3605C17.9984 19.7305 17.5282 19.9572 17.025 19.995L16.875 20H2.875C2.37042 20.0002 1.88443 19.8096 1.51445 19.4665C1.14447 19.1234 0.917843 18.6532 0.88 18.15L0.875 18V17C0.875074 15.7115 1.37254 14.4728 2.26366 13.5422C3.15478 12.6116 4.37075 12.0609 5.658 12.005L5.875 12H13.875ZM9.875 0C11.2011 0 12.4729 0.526784 13.4105 1.46447C14.3482 2.40215 14.875 3.67392 14.875 5C14.875 6.32608 14.3482 7.59785 13.4105 8.53553C12.4729 9.47322 11.2011 10 9.875 10C8.54892 10 7.27715 9.47322 6.33947 8.53553C5.40178 7.59785 4.875 6.32608 4.875 5C4.875 3.67392 5.40178 2.40215 6.33947 1.46447C7.27715 0.526784 8.54892 0 9.875 0Z" fill="#AFB1B6"/>
</svg>
