<svg width="25" height="24" viewBox="0 0 25 24" fill="none" xmlns="http://www.w3.org/2000/svg">
<path d="M10.8756 1.99951C11.606 1.41516 12.644 1.41516 13.3744 1.99951L21.3744 8.39951C21.8488 8.77906 22.125 9.35368 22.125 9.96125V21C22.125 22.1046 21.2296 23 20.125 23H16.125C15.5727 23 15.125 22.5523 15.125 22V18C15.125 17.4477 14.6773 17 14.125 17H10.125C9.57272 17 9.125 17.4477 9.125 18V22C9.125 22.5523 8.67728 23 8.125 23H4.125C3.02043 23 2.125 22.1046 2.125 21V9.96125C2.125 9.35368 2.40118 8.77906 2.87561 8.39951L10.8756 1.99951Z" fill="#AFB1B6"/>
</svg>
