<svg width="21" height="22" viewBox="0 0 21 22" fill="none" xmlns="http://www.w3.org/2000/svg">
<path d="M8.87561 0.999512C9.60605 0.415162 10.644 0.415163 11.3744 0.999513L19.3744 7.39951C19.8488 7.77906 20.125 8.35368 20.125 8.96125V20C20.125 21.1046 19.2296 22 18.125 22H14.125C13.5727 22 13.125 21.5523 13.125 21V17C13.125 16.4477 12.6773 16 12.125 16H8.125C7.57272 16 7.125 16.4477 7.125 17V21C7.125 21.5523 6.67728 22 6.125 22H2.125C1.02043 22 0.125 21.1046 0.125 20V8.96125C0.125 8.35368 0.401179 7.77906 0.87561 7.39951L8.87561 0.999512Z" fill="url(#paint0_linear_4206_5764)"/>
<defs>
<linearGradient id="paint0_linear_4206_5764" x1="-1.63137" y1="5.5" x2="25.9825" y2="20.5574" gradientUnits="userSpaceOnUse">
<stop stop-color="#F9C00F"/>
<stop offset="0.501111" stop-color="#E62419"/>
<stop offset="1" stop-color="#21499C"/>
</linearGradient>
</defs>
</svg>
