<svg width="25" height="24" viewBox="0 0 25 24" fill="none" xmlns="http://www.w3.org/2000/svg">
<path d="M16.875 14C18.1635 14.0001 19.4022 14.4975 20.3328 15.3887C21.2634 16.2798 21.8141 17.4958 21.87 18.783L21.875 19V20C21.8752 20.5046 21.6846 20.9906 21.3415 21.3605C20.9984 21.7305 20.5282 21.9572 20.025 21.995L19.875 22H5.875C5.37042 22.0002 4.88443 21.8096 4.51445 21.4665C4.14447 21.1234 3.91784 20.6532 3.88 20.15L3.875 20V19C3.87507 17.7115 4.37254 16.4728 5.26366 15.5422C6.15478 14.6116 7.37075 14.0609 8.658 14.005L8.875 14H16.875ZM12.875 2C14.2011 2 15.4729 2.52678 16.4105 3.46447C17.3482 4.40215 17.875 5.67392 17.875 7C17.875 8.32608 17.3482 9.59785 16.4105 10.5355C15.4729 11.4732 14.2011 12 12.875 12C11.5489 12 10.2771 11.4732 9.33947 10.5355C8.40178 9.59785 7.875 8.32608 7.875 7C7.875 5.67392 8.40178 4.40215 9.33947 3.46447C10.2771 2.52678 11.5489 2 12.875 2Z" fill="url(#paint0_linear_6239_73)"/>
<defs>
<linearGradient id="paint0_linear_6239_73" x1="2.29426" y1="7" x2="27.2606" y2="20.4776" gradientUnits="userSpaceOnUse">
<stop stop-color="#F9C00F"/>
<stop offset="0.501111" stop-color="#E62419"/>
<stop offset="1" stop-color="#21499C"/>
</linearGradient>
</defs>
</svg>
