<svg width="25" height="24" viewBox="0 0 25 24" fill="none" xmlns="http://www.w3.org/2000/svg">
<path d="M7.865 2.25H17.385C17.8967 2.25011 18.3983 2.39299 18.8332 2.66258C19.2681 2.93217 19.6192 3.31777 19.847 3.776C19.8672 3.81971 19.8843 3.86483 19.898 3.911L22.061 11.757C22.269 12.5145 22.3746 13.2965 22.375 14.082V19C22.375 19.7293 22.0853 20.4288 21.5695 20.9445C21.0538 21.4603 20.3543 21.75 19.625 21.75H5.625C4.89565 21.75 4.19618 21.4603 3.68046 20.9445C3.16473 20.4288 2.875 19.7293 2.875 19V14.082C2.875 13.297 2.981 12.515 3.189 11.757L5.352 3.911C5.36573 3.86483 5.38277 3.81971 5.403 3.776C5.63076 3.31777 5.98186 2.93217 6.4168 2.66258C6.85175 2.39299 7.35328 2.25011 7.865 2.25ZM20.867 13.75H17.695C17.4892 13.7501 17.2866 13.8009 17.1052 13.8981C16.9237 13.9953 16.7691 14.1357 16.655 14.307L15.843 15.525C15.5919 15.9018 15.2517 16.2107 14.8526 16.4244C14.4535 16.6381 14.0077 16.7499 13.555 16.75H11.695C11.2423 16.7499 10.7965 16.6381 10.3974 16.4244C9.99827 16.2107 9.65807 15.9018 9.407 15.525L8.595 14.307C8.4809 14.1357 8.32627 13.9953 8.14485 13.8981C7.96342 13.8009 7.76081 13.7501 7.555 13.75H4.383C4.37771 13.8606 4.37504 13.9713 4.375 14.082V19C4.375 19.3315 4.5067 19.6495 4.74112 19.8839C4.97554 20.1183 5.29348 20.25 5.625 20.25H19.625C19.9565 20.25 20.2745 20.1183 20.5089 19.8839C20.7433 19.6495 20.875 19.3315 20.875 19V14.082C20.875 13.972 20.8723 13.8613 20.867 13.75Z" fill="#AFB1B6"/>
</svg>
