<svg width="25" height="25" viewBox="0 0 25 25" fill="none" xmlns="http://www.w3.org/2000/svg">
<path d="M21.595 4.69L20.255 4.13V13.16L22.685 7.3C23.095 6.28 22.625 5.11 21.595 4.69ZM2.09501 8.39L7.05501 20.34C7.20106 20.7036 7.45019 21.0165 7.77177 21.2404C8.09334 21.4643 8.47333 21.5892 8.86501 21.6C9.12501 21.6 9.39501 21.55 9.65501 21.44L17.025 18.39C17.775 18.08 18.235 17.34 18.255 16.6C18.265 16.34 18.215 16.05 18.125 15.79L13.125 3.84C12.9841 3.4737 12.736 3.15844 12.4131 2.93542C12.0902 2.7124 11.7075 2.59202 11.315 2.59C11.055 2.59 10.795 2.65 10.545 2.74L3.18501 5.79C2.69577 5.99034 2.30612 6.37677 2.10172 6.86433C1.89732 7.35189 1.8949 7.90066 2.09501 8.39ZM18.245 4.59C18.245 4.05956 18.0343 3.55086 17.6592 3.17578C17.2841 2.80071 16.7754 2.59 16.245 2.59H14.795L18.245 10.93" fill="#21499C"/>
</svg>
