<svg width="25" height="25" viewBox="0 0 25 25" fill="none" xmlns="http://www.w3.org/2000/svg">
<path d="M12.375 14.34C12.6583 14.34 12.896 14.244 13.088 14.052C13.28 13.86 13.3757 13.6227 13.375 13.34V8.34C13.375 8.05666 13.279 7.81933 13.087 7.628C12.895 7.43666 12.6577 7.34066 12.375 7.34C12.0923 7.33933 11.855 7.43533 11.663 7.628C11.471 7.82066 11.375 8.058 11.375 8.34V13.34C11.375 13.6233 11.471 13.861 11.663 14.053C11.855 14.245 12.0923 14.3407 12.375 14.34ZM15.375 12.84C15.6583 12.84 15.896 12.744 16.088 12.552C16.28 12.36 16.3757 12.1227 16.375 11.84V9.34C16.375 9.05666 16.279 8.81933 16.087 8.628C15.895 8.43666 15.6577 8.34066 15.375 8.34C15.0923 8.33933 14.855 8.43533 14.663 8.628C14.471 8.82066 14.375 9.058 14.375 9.34V11.84C14.375 12.1233 14.471 12.361 14.663 12.553C14.855 12.745 15.0923 12.8407 15.375 12.84ZM9.375 12.34C9.65833 12.34 9.896 12.244 10.088 12.052C10.28 11.86 10.3757 11.6227 10.375 11.34V9.34C10.375 9.05666 10.279 8.81933 10.087 8.628C9.895 8.43666 9.65767 8.34066 9.375 8.34C9.09233 8.33933 8.855 8.43533 8.663 8.628C8.471 8.82066 8.375 9.058 8.375 9.34V11.34C8.375 11.6233 8.471 11.861 8.663 12.053C8.855 12.245 9.09233 12.3407 9.375 12.34ZM7.375 22.34C7.09167 22.34 6.85433 22.244 6.663 22.052C6.47167 21.86 6.37567 21.6227 6.375 21.34V18.04C5.425 17.1733 4.68767 16.161 4.163 15.003C3.63833 13.845 3.37567 12.624 3.375 11.34C3.375 8.84 4.25 6.715 6 4.965C7.75 3.215 9.875 2.34 12.375 2.34C14.4583 2.34 16.3043 2.95266 17.913 4.178C19.5217 5.40333 20.5673 6.999 21.05 8.965L22.35 14.09C22.4333 14.4067 22.375 14.6943 22.175 14.953C21.975 15.2117 21.7083 15.3407 21.375 15.34H19.375V18.34C19.375 18.89 19.1793 19.361 18.788 19.753C18.3967 20.145 17.9257 20.3407 17.375 20.34H15.375V21.34C15.375 21.6233 15.279 21.861 15.087 22.053C14.895 22.245 14.6577 22.3407 14.375 22.34H7.375Z" fill="#E62419"/>
</svg>
