<svg width="25" height="25" viewBox="0 0 25 25" fill="none" xmlns="http://www.w3.org/2000/svg">
<path d="M12.875 2.34C18.398 2.34 22.875 6.817 22.875 12.34C22.875 17.863 18.398 22.34 12.875 22.34C7.352 22.34 2.875 17.863 2.875 12.34C2.875 6.817 7.352 2.34 12.875 2.34ZM9.316 5.173C7.86046 5.89626 6.65964 7.04557 5.87328 8.46802C5.08693 9.89047 4.75232 11.5186 4.91397 13.1359C5.07562 14.7532 5.72587 16.2829 6.77821 17.5216C7.83055 18.7602 9.2351 19.6491 10.805 20.07V20.068C11.6845 20.3008 12.6201 20.1821 13.4135 19.7368C14.2069 19.2916 14.7957 18.555 15.0553 17.683C15.3148 16.811 15.2246 15.8723 14.8038 15.0657C14.383 14.2591 13.6647 13.648 12.801 13.362L12.617 13.307C11.7953 13.0871 11.0358 12.6796 10.3982 12.1165C9.76068 11.5534 9.2624 10.8501 8.94258 10.0619C8.62276 9.27371 8.49012 8.42207 8.55509 7.57393C8.62006 6.7258 8.88086 5.90429 9.317 5.174L9.316 5.173ZM11.616 15.108C11.8063 15.159 11.9847 15.247 12.1409 15.367C12.2972 15.4869 12.4283 15.6365 12.5268 15.8071C12.6253 15.9777 12.6892 16.1661 12.7149 16.3614C12.7406 16.5567 12.7275 16.7552 12.6765 16.9455C12.6255 17.1358 12.5375 17.3142 12.4175 17.4704C12.2976 17.6267 12.148 17.7578 11.9774 17.8563C11.8068 17.9548 11.6184 18.0187 11.4231 18.0444C11.2278 18.0701 11.0293 18.057 10.839 18.006C10.4547 17.903 10.1271 17.6515 9.92819 17.3069C9.72931 16.9623 9.67546 16.5528 9.7785 16.1685C9.88154 15.7842 10.133 15.4566 10.4776 15.2577C10.8222 15.0588 11.2317 15.005 11.616 15.108ZM13.074 7.735C12.9711 8.1193 13.0251 8.52873 13.224 8.87324C13.423 9.21774 13.7507 9.46909 14.135 9.572C14.3253 9.62295 14.5237 9.63592 14.719 9.61018C14.9143 9.58443 15.1027 9.52047 15.2732 9.42195C15.6177 9.22298 15.8691 8.89529 15.972 8.511C16.023 8.32071 16.0359 8.12225 16.0102 7.92695C15.9844 7.73165 15.9205 7.54334 15.822 7.37276C15.7234 7.20217 15.5923 7.05267 15.436 6.93278C15.2797 6.81288 15.1013 6.72495 14.911 6.674C14.7207 6.62304 14.5223 6.61007 14.327 6.63581C14.1317 6.66156 13.9433 6.72552 13.7728 6.82404C13.4283 7.02302 13.1769 7.3507 13.074 7.735Z" fill="#F2B50C"/>
</svg>
