<svg width="25" height="25" viewBox="0 0 25 25" fill="none" xmlns="http://www.w3.org/2000/svg">
<path fill-rule="evenodd" clip-rule="evenodd" d="M12.625 4.34C17.64 4.34 21.869 7.696 23.195 12.282C23.2537 12.485 23.2466 12.7013 23.1748 12.9C23.1029 13.0987 22.97 13.2695 22.795 13.388L22.693 13.448L14.802 17.53L15.085 17.676C15.3125 17.7928 15.4866 17.9922 15.5716 18.2334C15.6565 18.4746 15.6458 18.7392 15.5417 18.9728C15.4376 19.2063 15.248 19.3911 15.0118 19.4892C14.7757 19.5873 14.5109 19.5911 14.272 19.5L14.166 19.452L12.626 18.656L11.085 19.452C10.8583 19.5707 10.5946 19.598 10.3484 19.5282C10.1022 19.4584 9.89208 19.2969 9.76137 19.0768C9.63066 18.8568 9.58928 18.595 9.64576 18.3454C9.70224 18.0958 9.85228 17.8773 10.065 17.735L10.165 17.675L10.449 17.53L2.55699 13.448C2.35146 13.3416 2.18918 13.1673 2.09782 12.9547C2.00647 12.742 1.99168 12.5043 2.05599 12.282C3.38099 7.696 7.60999 4.34 12.626 4.34H12.625ZM12.625 13.34C11.445 13.34 10.425 14.021 9.93499 15.012L12.625 16.404L15.316 15.012C15.0682 14.5101 14.685 14.0875 14.2096 13.7921C13.7343 13.4966 13.1857 13.34 12.626 13.34H12.625Z" fill="#E62419"/>
</svg>
