<svg width="360" height="48" viewBox="0 0 360 48" fill="none" xmlns="http://www.w3.org/2000/svg">
<path d="M29.2578 9.60156V13.5859C29.2578 18.3125 29.2578 23.1953 27.9688 30.6172L23.5547 30.2266C24.9219 23.2734 24.9219 18.1562 24.9219 13.5859V13.1172H4.57031V9.60156H29.2578ZM33.3594 33.0781V36.6328H1.17188V33.0781H33.3594ZM67.9688 23.3906V26.8281H53.9453V30.3438H49.6484V26.8281H35.7031V23.3906H67.9688ZM44.1406 28.625V31.8281H59.7266V28.625H64.0234V41.0469H39.8438V28.625H44.1406ZM44.1406 37.7266H59.7266V35.0703H44.1406V37.7266ZM63.9844 6.78906V15.5H44.1016V18H64.6875V21.2422H39.8047V12.4141H59.6484V10.0703H39.6875V6.78906H63.9844ZM90.5859 16.9062C90.5859 22.2969 92.8125 27.8438 97.8125 30.4609L95.3516 33.6641C92.0508 31.9453 89.8438 28.8594 88.5938 25.1484C87.3438 29.1328 85.1172 32.5508 81.7969 34.4453L79.2969 31.2422C84.2188 28.3516 86.4844 22.4922 86.4844 16.9062V15.9297H80.3125V12.375H86.4844V7.41406H90.5859V12.375H96.6797V15.9297H90.5859V16.9062ZM110.43 6.16406V41.4766H106.289V23.5859H102.656V39.7578H98.5547V6.78906H102.656V19.9922H106.289V6.16406H110.43ZM133.398 8.70312V12.1406H120.742V15.5H132.383V18.8984H120.742V22.2969C127.344 22.3359 131.367 22.2383 136.016 21.4375L136.445 24.875C131.367 25.6953 126.953 25.8516 119.336 25.8125H116.328V8.70312H133.398ZM143.789 6.20312V27.7266H139.414V6.20312H143.789ZM131.875 28.2344C139.297 28.2344 143.945 30.6562 143.945 34.8359C143.945 39.0156 139.297 41.4375 131.875 41.4375C124.336 41.4375 119.766 39.0156 119.805 34.8359C119.766 30.6562 124.336 28.2344 131.875 28.2344ZM131.875 31.5938C126.875 31.5938 124.102 32.7656 124.141 34.8359C124.102 36.9453 126.875 38.0781 131.875 38.0781C136.758 38.0781 139.609 36.9453 139.609 34.8359C139.609 32.7656 136.758 31.5938 131.875 31.5938ZM176.602 6.16406V20.2266H182.031V23.8203H176.602V41.4766H172.305V6.16406H176.602ZM169.57 11.5938V15.0703H148.75V11.5938H157.109V6.67188H161.445V11.5938H169.57ZM159.297 17.375C164.375 17.375 168.164 20.8125 168.164 25.6953C168.164 30.5781 164.375 33.9766 159.297 33.9766C154.141 33.9766 150.352 30.5781 150.391 25.6953C150.352 20.8125 154.141 17.375 159.297 17.375ZM159.297 20.9297C156.523 20.9297 154.531 22.8047 154.531 25.6953C154.531 28.5859 156.523 30.4219 159.297 30.3828C161.992 30.4219 163.984 28.5859 164.023 25.6953C163.984 22.8047 161.992 20.9297 159.297 20.9297ZM213.086 6.16406V41.5156H208.75V22.7266H202.695V19.1719H208.75V6.16406H213.086ZM200.664 9.25V22.1797H189.102V29.6016C194.336 29.582 198.574 29.4062 203.32 28.5469L203.672 32.1016C198.398 33.0391 193.711 33.2344 187.617 33.2344H184.805V18.6641H196.406V12.7656H184.688V9.25H200.664ZM255.234 6.16406V19.9531H260.469V23.5859H255.234V41.3984H250.898V6.16406H255.234ZM245.898 9.83594C245.898 20.2266 241.602 29.3281 229.844 35.1094L227.383 31.75C235.977 27.4727 240.625 21.457 241.523 13.4297H229.297V9.83594H245.898ZM291.641 6.16406V41.4766H287.266V6.16406H291.641ZM281.094 9.91406C281.094 20.4219 277.031 29.3672 264.648 35.2266L262.383 31.75C271.621 27.3555 275.918 21.3789 276.68 13.3516H264.18V9.91406H281.094Z" fill="#222222"/>
<path d="M333.5 12.5L346 24L333.5 35.5" stroke="#222222" stroke-width="3" stroke-linecap="round"/>
</svg>
