<svg width="40" height="40" viewBox="0 0 40 40" fill="none" xmlns="http://www.w3.org/2000/svg">
<rect width="40" height="40" rx="20" fill="#FBAF5D"/>
<path d="M14.1695 28L12.408 20.9945H10V18.9834H11.9064L10.1561 12H12.8986L14.4705 18.9834H16.9788L18.6734 12H21.3266L23.0212 18.9834H25.5518L27.1237 12H29.8439L28.0936 18.9834H30V20.9945H27.592L25.8305 28H22.9766L21.2375 20.9945H18.7625L17.0234 28H14.1695ZM14.9164 20.9945L15.5964 24.0221H15.7525L16.4883 20.9945H14.9164ZM19.2531 18.9834H20.7469L20.0557 16.1989H19.9443L19.2531 18.9834ZM23.5117 20.9945L24.2475 24.0442H24.4036L25.0948 20.9945H23.5117Z" fill="#222222"/>
</svg>
