<svg width="24" height="24" viewBox="0 0 24 24" fill="none" xmlns="http://www.w3.org/2000/svg">
<g id="mingcute:coupon-fill">
<g id="Group">
<path id="Vector" d="M19 3C19.7652 2.99995 20.5015 3.32887 21.0583 3.91944C21.615 4.51002 21.9501 5.31762 21.995 6.177L22 6.375V8.41913C21.9977 8.72297 21.925 9.02088 21.7888 9.28332C21.6527 9.54577 21.458 9.76365 21.224 9.91538L21.117 9.98063C20.7935 10.1593 20.5189 10.433 20.3222 10.7727C20.1256 11.1125 20.0142 11.5058 19.9998 11.9109C19.9855 12.316 20.0687 12.718 20.2407 13.0743C20.4127 13.4306 20.6671 13.728 20.977 13.935L21.117 14.0194C21.55 14.2601 21.937 14.7574 21.993 15.4144L22 15.5809V17.625C22 18.4859 21.7077 19.3142 21.1827 19.9405C20.6578 20.5669 19.9399 20.9439 19.176 20.9944L19 21H5C4.23479 21 3.49849 20.6711 2.94174 20.0806C2.38499 19.49 2.04989 18.6824 2.005 17.823L2 17.625V15.5809C2 14.8991 2.352 14.3681 2.776 14.0846L2.883 14.0194C3.20653 13.8407 3.48114 13.567 3.67779 13.2273C3.87445 12.8875 3.98583 12.4942 4.00017 12.0891C4.01452 11.684 3.93129 11.282 3.75928 10.9257C3.58727 10.5694 3.33288 10.272 3.023 10.065L2.883 9.98063C2.45 9.73987 2.063 9.24263 2.007 8.58563L2 8.42025V6.375C1.99996 5.51414 2.29233 4.6858 2.81728 4.05946C3.34224 3.43312 4.06011 3.05613 4.824 3.00563L5 3H19ZM10 8.625C9.73478 8.625 9.48043 8.74353 9.29289 8.9545C9.10536 9.16548 9 9.45163 9 9.75V14.25C9 14.5484 9.10536 14.8345 9.29289 15.0455C9.48043 15.2565 9.73478 15.375 10 15.375C10.2652 15.375 10.5196 15.2565 10.7071 15.0455C10.8946 14.8345 11 14.5484 11 14.25V9.75C11 9.45163 10.8946 9.16548 10.7071 8.9545C10.5196 8.74353 10.2652 8.625 10 8.625Z" fill="#AFB1B6"/>
</g>
</g>
</svg>
