<svg width="20" height="21" viewBox="0 0 20 21" fill="none" xmlns="http://www.w3.org/2000/svg">
<g id="ant-design:message-filled">
<path id="Vector" d="M17.3772 7.23332C16.9757 6.27713 16.3916 5.40801 15.6575 4.6744C14.9256 3.93952 14.0561 3.35525 13.0986 2.95476C12.1176 2.54249 11.0636 2.33116 9.99916 2.33333H9.96337C8.88073 2.33869 7.83388 2.55297 6.84788 2.9744C5.89851 3.37901 5.03723 3.96431 4.31217 4.69761C3.58516 5.42957 3.00777 6.29565 2.61216 7.24761C2.20151 8.23754 1.99342 9.29944 2.00016 10.3708C2.00553 11.6101 2.30258 12.8405 2.85732 13.9405V16.6547C2.85732 17.1083 3.22596 17.4762 3.6787 17.4762H6.39514C7.5026 18.0338 8.7247 18.3273 9.96516 18.3333H10.0027C11.0729 18.3333 12.109 18.1262 13.086 17.7208C14.0388 17.3251 14.905 16.7476 15.636 16.0208C16.3733 15.2905 16.9531 14.4369 17.3593 13.4851C17.7798 12.4994 17.9946 11.4512 18 10.369C18.0035 9.28154 17.7924 8.22618 17.3772 7.23332ZM6.42735 11.1905C5.95492 11.1905 5.57018 10.8065 5.57018 10.3333C5.57018 9.86011 5.95492 9.47618 6.42735 9.47618C6.89977 9.47618 7.28451 9.86011 7.28451 10.3333C7.28451 10.8065 6.90156 11.1905 6.42735 11.1905ZM9.99916 11.1905C9.52674 11.1905 9.142 10.8065 9.142 10.3333C9.142 9.86011 9.52674 9.47618 9.99916 9.47618C10.4716 9.47618 10.8563 9.86011 10.8563 10.3333C10.8563 10.8065 10.4716 11.1905 9.99916 11.1905ZM13.571 11.1905C13.0986 11.1905 12.7138 10.8065 12.7138 10.3333C12.7138 9.86011 13.0986 9.47618 13.571 9.47618C14.0434 9.47618 14.4281 9.86011 14.4281 10.3333C14.4281 10.8065 14.0434 11.1905 13.571 11.1905Z" fill="#E62419"/>
</g>
</svg>
