<svg width="16" height="16" viewBox="0 0 16 16" fill="none" xmlns="http://www.w3.org/2000/svg">
<g id="lets-icons:mic-fill">
<path id="Vector" d="M11 3.76923C11 2.23983 9.65685 1 8 1C6.34315 1 5 2.23983 5 3.76923V7.23077C5 8.76017 6.34315 10 8 10C9.65685 10 11 8.76017 11 7.23077V3.76923Z" fill="#E62419"/>
<path id="Vector_2" d="M3 7C3 7.64348 3.12933 8.28065 3.3806 8.87515C3.63188 9.46964 4.00017 10.0098 4.46447 10.4648C4.92876 10.9198 5.47995 11.2808 6.08658 11.527C6.69321 11.7733 7.34339 11.9 8 11.9C8.65661 11.9 9.30679 11.7733 9.91342 11.527C10.52 11.2808 11.0712 10.9198 11.5355 10.4648C11.9998 10.0098 12.3681 9.46964 12.6194 8.87515C12.8707 8.28065 13 7.64348 13 7M8 14V12.6" stroke="#E62419" stroke-width="2" stroke-linecap="round" stroke-linejoin="round"/>
</g>
</svg>
