<svg width="10" height="10" viewBox="0 0 10 10" fill="none" xmlns="http://www.w3.org/2000/svg">
<path d="M4.98932 10C4.51138 10 4.12393 9.61255 4.12393 9.13461V5.8547H0.865385C0.387446 5.8547 0 5.46726 0 4.98932C0 4.51138 0.387446 4.12393 0.865385 4.12393H4.12393V0.865385C4.12393 0.387446 4.51138 0 4.98932 0C5.46726 0 5.8547 0.387446 5.8547 0.865385V4.12393H9.13461C9.61255 4.12393 10 4.51138 10 4.98932C10 5.46726 9.61255 5.8547 9.13461 5.8547H5.8547V9.13461C5.8547 9.61255 5.46726 10 4.98932 10Z" fill="#19191B"/>
</svg>
