<svg width="24" height="24" viewBox="0 0 24 24" fill="none" xmlns="http://www.w3.org/2000/svg">
<path fill-rule="evenodd" clip-rule="evenodd" d="M14.8098 5.87224C14.2136 6.6046 13.2123 7.15387 12.4136 7.15387C12.3236 7.15387 12.2336 7.14243 12.1773 7.13098C12.1661 7.08521 12.1436 6.94789 12.1436 6.81058C12.1436 5.87224 12.6048 4.95678 13.1111 4.37318C13.7523 3.60649 14.8211 3.03433 15.7098 3C15.7323 3.10299 15.7436 3.22886 15.7436 3.35474C15.7436 4.28164 15.3498 5.20853 14.8098 5.87224ZM10.8976 20.6582C10.4967 20.8334 10.1167 20.9994 9.60125 20.9994C8.49875 20.9994 7.73375 19.9695 6.85625 18.7107C5.8325 17.2231 5 14.923 5 12.7488C5 9.24722 7.23875 7.39343 9.44375 7.39343C10.0873 7.39343 10.6754 7.63346 11.1983 7.8469C11.6168 8.01776 11.9936 8.17156 12.3238 8.17156C12.6101 8.17156 12.9669 8.02813 13.3828 7.86096C13.9637 7.62747 14.6598 7.34766 15.44 7.34766C15.935 7.34766 17.7463 7.39343 18.9387 9.13279C18.9319 9.1382 18.9173 9.14799 18.8961 9.16225C18.6027 9.35928 17.0375 10.4103 17.0375 12.5657C17.0375 15.232 19.3212 16.1818 19.4 16.2047C19.398 16.2098 19.3933 16.2245 19.3859 16.2478C19.3108 16.4841 18.9529 17.6108 18.185 18.7565C17.4312 19.855 16.6325 20.9765 15.44 20.9765C14.8522 20.9765 14.4777 20.8078 14.0911 20.6336C13.6784 20.4477 13.2519 20.2556 12.5375 20.2556C11.8193 20.2556 11.3454 20.4626 10.8976 20.6582Z" fill="#19191B"/>
</svg>
