<svg width="25" height="24" viewBox="0 0 25 24" fill="none" xmlns="http://www.w3.org/2000/svg">
<path d="M12.4998 7.09336C14.002 7.09336 15.0153 7.74225 15.5931 8.28448L17.8509 6.08002C16.4642 4.79112 14.6598 4 12.4998 4C9.37084 4 6.66859 5.79557 5.35303 8.40893L7.93972 10.4178C8.58861 8.48893 10.3842 7.09336 12.4998 7.09336Z" fill="#E62419"/>
<path d="M20.1801 12.1785C20.1801 11.5208 20.1267 11.0408 20.0112 10.543H12.5V13.5119H16.9089C16.82 14.2497 16.34 15.3608 15.2734 16.1075L17.7978 18.063C19.3089 16.6675 20.1801 14.6141 20.1801 12.1785Z" fill="#21499C"/>
<path d="M7.94892 13.5835C7.78003 13.0858 7.68225 12.5524 7.68225 12.0013C7.68225 11.4502 7.78003 10.9168 7.94003 10.4191L5.35334 8.41016C4.81111 9.49461 4.5 10.7124 4.5 12.0013C4.5 13.2902 4.81111 14.508 5.35334 15.5924L7.94892 13.5835Z" fill="#F2B50C"/>
<path d="M12.5001 19.9999C14.6602 19.9999 16.4735 19.2887 17.798 18.0621L15.2735 16.1065C14.5979 16.5776 13.6913 16.9065 12.5001 16.9065C10.3846 16.9065 8.589 15.5109 7.94899 13.582L5.3623 15.5909C6.67787 18.2043 9.37123 19.9999 12.5001 19.9999Z" fill="#2EA94D"/>
</svg>
