<svg width="100" height="100" viewBox="0 0 100 100" fill="none" xmlns="http://www.w3.org/2000/svg">
<rect width="100" height="100" fill="white"/>
<path d="M20.7689 88.5263H70.8578C72.6474 88.5263 74.1481 87.9149 75.36 86.6921C76.5748 85.4753 77.1822 83.9647 77.1822 82.1603V80.1784H14.4444V82.1603C14.4444 83.9647 15.0519 85.4768 16.2667 86.6966C17.4756 87.9164 18.9763 88.5263 20.7689 88.5263ZM45.8267 33.2092C43.0593 33.2092 40.7333 32.2175 38.8489 30.2342C36.9615 28.2539 36.0919 25.8754 36.24 23.0987C36.3882 19.9671 37.44 17.186 39.3956 14.7553C41.3541 12.3275 43.4933 10.0758 45.8133 8C48.1333 10.0758 50.2711 12.3275 52.2267 14.7553C54.1822 17.183 55.2341 19.9358 55.3822 23.0137C55.5304 25.847 54.6667 28.2554 52.7911 30.2387C50.9126 32.219 48.5911 33.2092 45.8267 33.2092ZM39.6578 75.7092H51.9689V48.7776C51.9689 47.9753 51.7111 47.3162 51.1956 46.8003C50.683 46.2843 50.0281 46.0263 49.2311 46.0263H42.3956C41.5956 46.0263 40.9393 46.2843 40.4267 46.8003C39.9141 47.3162 39.6578 47.9768 39.6578 48.7821V75.7092ZM45.8044 28.7355C47.2859 28.7355 48.5126 28.2166 49.4844 27.1787C50.4563 26.1408 50.9422 24.8732 50.9422 23.3761C50.9422 21.5329 50.3911 19.8746 49.2889 18.4013C48.1837 16.928 47.0252 15.5054 45.8133 14.1334C44.5985 15.5054 43.44 16.928 42.3378 18.4013C41.2356 19.8746 40.6844 21.5329 40.6844 23.3761C40.6844 24.8732 41.1689 26.1408 42.1378 27.1787C43.1037 28.2166 44.3259 28.7355 45.8044 28.7355ZM80.4267 75.7092C81.8459 75.7092 83.0563 75.2052 84.0578 74.1971C85.0593 73.189 85.5585 71.9573 85.5556 70.5018C85.5526 69.0464 85.0533 67.8147 84.0578 66.8066C83.0622 65.7985 81.8519 65.296 80.4267 65.2989C79.0015 65.3019 77.7926 65.8045 76.8 66.8066C75.8074 67.8087 75.3067 69.0404 75.2978 70.5018C75.2889 71.9632 75.7896 73.195 76.8 74.1971C77.8104 75.1992 79.0193 75.7032 80.4267 75.7092ZM70.8533 93H20.7689C17.7763 93 15.2341 91.9457 13.1422 89.8371C11.0504 87.7285 10.003 85.1696 10 82.1603V75.7047H35.2133V48.7821C35.2133 46.7928 35.917 45.0913 37.3244 43.6776C38.7319 42.264 40.4207 41.5556 42.3911 41.5526H49.2311C51.2044 41.5526 52.8933 42.261 54.2978 43.6776C55.7022 45.0943 56.4059 46.7943 56.4089 48.7776V75.7092H72.5822C72.0341 74.9397 71.6089 74.1196 71.3067 73.2487C71.0045 72.3778 70.8533 71.4488 70.8533 70.4616C70.8533 67.7744 71.7822 65.4958 73.64 63.6258C75.4978 61.7558 77.76 60.8223 80.4267 60.8253C83.0933 60.8282 85.3556 61.7618 87.2133 63.6258C89.0711 65.4898 90 67.7684 90 70.4616C90 72.949 89.1956 75.1023 87.5867 76.9216C85.9748 78.7409 83.9867 79.7937 81.6222 80.08V82.1603C81.6222 85.1725 80.5763 87.7315 78.4845 89.8371C76.3926 91.9427 73.8489 92.997 70.8533 93Z" fill="black"/>
</svg>
