<svg width="100" height="100" viewBox="0 0 100 100" fill="none" xmlns="http://www.w3.org/2000/svg">
<rect width="100" height="100" fill="white"/>
<path d="M18.4518 80.9614V43.2022H17.6588C16.4474 43.2022 15.4306 42.7911 14.6084 41.9688C13.7861 41.1466 13.375 40.1298 13.375 38.9184V29.2411C13.375 28.0298 13.7861 27.013 14.6084 26.1907C15.4306 25.3685 16.4474 24.9573 17.6588 24.9573H34.5868C33.7673 24.2327 33.2001 23.373 32.8852 22.3782C32.571 21.3841 32.4139 20.3397 32.4139 19.2452C32.4139 16.5131 33.3703 14.1907 35.2829 12.2781C37.1955 10.3655 39.5179 9.40918 42.25 9.40918C43.8312 9.40918 45.2829 9.78077 46.605 10.524C47.927 11.2665 49.0666 12.2327 50.0236 13.4228C50.9813 12.2169 52.1211 11.2465 53.4432 10.5116C54.7653 9.77665 56.2169 9.40918 57.7982 9.40918C60.5303 9.40918 62.8527 10.3655 64.7653 12.2781C66.6779 14.1907 67.6342 16.5131 67.6342 19.2452C67.6342 20.3191 67.473 21.3545 67.1506 22.3514C66.8281 23.3482 66.2651 24.2169 65.4614 24.9573H83.3412C84.5526 24.9573 85.5694 25.3685 86.3916 26.1907C87.2139 27.013 87.625 28.0298 87.625 29.2411V38.9184C87.625 40.1298 87.2139 41.1466 86.3916 41.9688C85.5694 42.7911 84.5526 43.2022 83.3412 43.2022H82.5482V80.9614C82.5482 82.7943 81.8957 84.3632 80.5908 85.6681C79.286 86.9729 77.7171 87.6254 75.8842 87.6254H25.1158C23.2829 87.6254 21.714 86.9729 20.4092 85.6681C19.1043 84.3632 18.4518 82.7943 18.4518 80.9614ZM57.7982 13.5342C56.1798 13.5342 54.8233 14.0814 53.7288 15.1759C52.6337 16.2704 52.0861 17.6269 52.0861 19.2452C52.0861 20.8636 52.6337 22.2201 53.7288 23.3146C54.8233 24.4097 56.1798 24.9573 57.7982 24.9573C59.4165 24.9573 60.773 24.4097 61.8675 23.3146C62.962 22.2201 63.5092 20.8636 63.5092 19.2452C63.5092 17.6269 62.962 16.2704 61.8675 15.1759C60.773 14.0814 59.4165 13.5342 57.7982 13.5342ZM36.5389 19.2452C36.5389 20.8636 37.0862 22.2201 38.1807 23.3146C39.2752 24.4097 40.6316 24.9573 42.25 24.9573C43.8684 24.9573 45.2248 24.4097 46.3193 23.3146C47.4138 22.2201 47.9611 20.8636 47.9611 19.2452C47.9611 17.6269 47.4138 16.2704 46.3193 15.1759C45.2248 14.0814 43.8684 13.5342 42.25 13.5342C40.6316 13.5342 39.2752 14.0814 38.1807 15.1759C37.0862 16.2704 36.5389 17.6269 36.5389 19.2452ZM17.5 29.0823V39.0772H48.4375V29.0823H17.5ZM48.4375 83.5004V43.2022H22.5768V80.9614C22.5768 81.7019 22.8147 82.3103 23.2905 82.7868C23.7669 83.2625 24.3753 83.5004 25.1158 83.5004H48.4375ZM52.5625 83.5004H75.8842C76.6247 83.5004 77.2331 83.2625 77.7095 82.7868C78.1853 82.3103 78.4232 81.7019 78.4232 80.9614V43.2022H52.5625V83.5004ZM83.5 39.0772V29.0823H52.5625V39.0772H83.5Z" fill="#222222"/>
</svg>
