<svg width="121" height="28" viewBox="0 0 121 28" fill="none" xmlns="http://www.w3.org/2000/svg">
<g clip-path="url(#clip0_4247_385)">
<path d="M14.0018 0C6.26984 0 0 6.26984 0 14.0018C0 21.7338 6.26984 28.0036 14.0018 28.0036C21.7338 28.0036 28.0036 21.7338 28.0036 14.0018C28.0036 6.26984 21.7338 0 14.0018 0ZM14.0018 25.9761C7.44386 25.9761 2.12836 20.6606 2.12836 14.1026C2.12836 7.54469 7.44386 2.2328 14.0018 2.2328C20.5597 2.2328 25.8752 7.5483 25.8752 14.1062C25.8752 20.6642 20.5597 25.9797 14.0018 25.9797V25.9761Z" fill="url(#paint0_linear_4247_385)"/>
<path d="M4.71768 12.1183C4.15948 15.6151 5.067 18.6186 7.71035 21.0171C9.41736 22.5656 11.4377 23.3723 13.7425 23.4119C17.405 23.4731 18.95 20.0267 18.0136 17.6931C17.5707 16.5875 16.8828 15.7448 15.7916 15.2586C14.4015 14.6392 13.1159 15.0533 11.8086 15.7304C8.85556 17.2213 5.65041 15.5359 4.82212 12.5396C4.7825 12.3992 4.75369 12.2587 4.71768 12.1219V12.1183Z" fill="#21499C"/>
<path d="M17.0052 23.0554C20.3112 21.7914 22.4612 19.5045 23.2175 16.0149C23.7036 13.7641 23.3939 11.6069 22.2739 9.59381C20.4949 6.39226 16.7387 6.7776 15.1866 8.75471C14.4519 9.69104 14.1782 10.9335 14.3007 12.1219C14.4591 13.6345 15.291 14.2719 16.5335 15.0606C19.4721 16.746 19.4973 20.5381 17.3149 22.7529C17.2141 22.8537 17.1061 22.9546 17.0052 23.0518V23.0554Z" fill="#F2B50C"/>
<path d="M20.3328 6.94686C17.5851 4.71407 14.5276 3.99741 11.128 5.0886C8.93477 5.79085 7.22416 7.13773 6.03933 9.11484C4.15586 12.2588 6.36705 15.3163 8.85914 15.6728C10.0368 15.842 11.1135 15.6656 12.0787 14.9669C13.3103 14.0738 13.638 12.799 13.7029 11.3296C13.7029 7.9012 16.908 6.04654 19.9187 6.82802C20.0591 6.86403 20.196 6.90725 20.3328 6.94686Z" fill="#E62419"/>
</g>
<path d="M36.0341 16.8374C36.0341 16.7352 36.1363 16.3944 36.1363 16.2751V15.2014C36.1363 14.6561 36.5794 13.8892 36.801 13.429L36.9032 13.1223L37.1418 12.8496L37.2781 12.5429L37.5849 12.3043C37.8576 12.202 38.1473 11.5374 38.2495 11.2988L38.3518 10.958L38.6926 10.7194L38.7949 10.5149L39.4595 9.61164C39.4595 9.61164 40.0219 9.16855 40.0219 9.08334L40.2605 8.77659L42.1692 6.86788L42.4419 6.52704L43.2088 5.76015C43.5837 5.52156 43.72 5.28297 43.9075 5.09551C44.1461 4.99326 44.5721 4.65242 44.8107 4.43087C44.8107 4.32862 45.2538 3.88553 45.2538 3.76624L46.3615 2.6585C46.566 2.41992 46.9069 2.55626 47.1284 2.55626H47.6908C47.8953 2.65851 48.0657 2.86301 48.1339 3.11864L48.9008 4.66946V5.5386L48.1339 6.33958L47.4863 6.86788C47.35 6.86788 47.0091 7.41322 46.8898 7.41322L46.3445 7.75407L45.7821 8.31645C45.7821 8.45278 45.1686 9.11742 45.0152 9.18559C44.8107 9.42418 44.4699 9.56052 44.2483 9.74798L42.6975 11.2306L42.5953 11.2988L42.4248 11.5374L41.6579 12.3043L40.5502 13.3438L39.238 14.6561L38.7608 15.0651L38.5904 15.2014L37.6531 16.1728C36.8862 16.8374 36.4431 17.7236 36.2045 18.0474H36.1022L36 17.9793V16.8374H36.0341ZM43.3792 15.9683C43.4814 15.2014 43.5837 13.1223 43.5837 13.02C43.5837 13.02 43.72 12.5429 43.72 12.4577C43.8223 11.8612 44.0609 10.9068 44.6914 10.9068H44.93L45.2708 11.2477C45.9696 12.0146 46.2763 13.02 46.2763 14.0085C46.2763 14.5709 46.2763 14.7413 46.14 15.423L46.0377 15.7638V16.9738L45.9696 17.3146C45.9696 17.4851 45.6969 18.0133 45.6969 18.0815C45.5946 18.3201 45.2538 18.5928 45.1515 18.8484C44.913 19.4108 45.2538 19.6494 44.4869 19.6494C43.9245 19.6494 44.0438 18.9847 43.9245 18.6439L43.72 18.3031L43.5837 18.0645V17.9963C43.5837 17.7236 43.3792 16.2921 43.3792 16.0876V15.9853V15.9683ZM44.6914 22.751C44.6914 22.751 44.93 22.2057 45.0323 22.0523C45.4072 21.541 45.6969 21.0809 46.0377 20.5015L47.8442 18.2179C48.2873 17.5191 49.9574 14.4516 50.4686 14.4516C50.9117 14.4516 51.2355 15.1844 51.4741 15.4911C51.815 16.0535 51.9172 16.3944 51.9172 17.076C51.9172 17.6214 51.4741 18.2179 51.2526 18.7632V18.8314L50.9117 19.5301L50.4686 20.0925L49.9744 20.9616L49.412 21.524L49.4802 21.7626L49.8211 21.7285H50.3664C51.6105 21.524 52.8204 20.9616 54.0645 20.6889H54.5076C56.3822 20.4844 58.308 19.7176 60.0803 19.1381H60.1826C61.4607 18.5928 62.2958 17.8259 63.3354 17.059L64.1704 16.258H64.3067V16.3944C64.1022 16.8375 63.5399 17.1612 63.1649 17.6043C62.8241 17.9793 62.6196 18.8143 62.6196 19.3085C62.6196 19.8539 62.9604 20.4163 62.9604 20.9446C62.9604 21.507 62.8241 21.7115 62.398 22.1886C62.2958 22.3931 61.7334 22.8192 61.6312 22.9555C61.2903 23.16 60.6257 23.2964 60.3189 23.3986L58.9726 23.7395C58.0694 23.8417 57.1662 23.7395 56.28 23.944C55.9732 24.0803 55.6153 24.1826 55.2063 24.1826H54.9337L54.6951 24.0803L54.3542 24.1826C53.8089 24.2848 53.3147 24.2848 52.7182 24.4211C51.9513 24.5234 51.0651 24.8642 50.2641 25.0517C50.1619 25.0517 49.9915 25.188 49.8211 25.188H49.4802L49.412 25.2903C48.9349 25.563 48.4066 25.563 47.9294 25.6311C47.4011 25.7334 46.8217 25.972 46.157 25.972C45.0493 25.972 44.7085 24.2848 44.7085 23.3134V22.751H44.6914ZM58.2568 1.63599C58.3591 1.63599 58.8192 1.73823 58.8192 1.73823C59.1601 1.84049 59.3646 2.40287 59.5861 2.7778C59.927 3.1868 60.2508 3.64694 60.2508 4.19229C60.2508 4.73763 60.2508 4.99326 60.1144 5.5386C60.1144 5.87944 59.9099 6.54409 59.9099 6.54409L59.6713 7.54956L59.4327 7.75407V8.23124L59.126 8.67434L58.8874 9.78206L58.4102 10.157V10.3615L57.9671 11.2647C57.5922 11.5715 57.4218 12.0316 57.0639 12.4747L56.9957 12.6792L56.8594 13.1564L56.297 14.1618L56.1948 14.7072C56.1948 14.7072 55.7176 15.5423 55.6494 15.7808L55.5131 15.8831L55.1722 16.3262L55.1041 16.7011L54.7291 17.1442C54.3883 17.6895 54.3883 18.4564 53.8259 18.8314V18.4564C53.8259 18.3542 53.9623 18.0474 53.9623 17.9111C53.9623 17.5021 54.1668 16.1387 54.1668 15.9001C54.269 14.622 54.1668 13.412 54.4054 12.0657L54.7462 10.7194C54.8484 10.174 55.3767 8.36757 55.5131 8.12898C55.5131 8.02673 55.7176 7.68589 55.7176 7.60068C56.28 6.3907 56.4845 4.94213 56.9957 3.69807C56.9957 3.59581 57.3025 2.454 57.4388 2.35175L58.1035 1.68711H58.2057L58.2568 1.63599Z" fill="#19191B"/>
<path d="M68.1582 17.0079L68.2264 16.7693L68.1582 16.5648V16.4626C68.1582 16.3262 68.2264 16.0536 68.2264 16.0536L69.4023 13.7699C69.4023 13.6336 69.5727 13.4973 69.6409 13.395L69.8454 13.3268C69.8454 13.1905 70.118 12.8497 70.118 12.7645C70.118 12.6963 70.3907 12.3895 70.3907 12.3895C70.5611 12.2532 70.7315 12.3214 70.9531 12.1169C71.5155 11.2477 72.2653 10.4808 72.964 9.66281L74.6001 8.04382L74.9409 7.56665L75.0432 7.36214L75.3158 7.12356H75.5544C75.8271 6.95314 75.7589 6.493 76.185 6.493C76.3554 6.42483 76.9519 5.79428 77.1223 5.62386C77.4972 5.24894 77.5995 4.99331 78.0255 4.99331C78.4004 4.99331 78.5027 5.19781 78.6561 5.4364C78.7583 5.57274 79.4911 6.33962 79.7638 6.57821C80.1728 7.05539 80.1728 7.31102 80.1728 7.92453V8.36763L80.1046 8.50395L79.832 8.67438L79.5934 8.94705H79.2866L79.0821 9.15156L78.639 9.32197C78.2641 9.45831 78.2641 9.6969 78.1278 9.91844L77.9914 9.98661L77.7188 10.1911C77.7188 10.1911 77.2245 10.7365 77.0882 10.7876L77.02 10.9921V11.1966L76.7814 11.2648L76.6451 11.5374C76.4747 11.9123 76.1339 12.0828 75.9464 12.5429C76.0486 12.5429 76.4917 12.7133 76.594 12.7133L76.7985 12.8837H77.0371L77.412 13.0542C77.412 13.0542 77.821 13.2246 77.9403 13.2246L78.213 13.5313L78.5538 13.5995C78.7583 13.6677 79.4911 14.3323 79.5934 14.5027C79.7638 14.605 80.1558 15.1503 80.258 15.2015L80.3603 15.2696C80.3603 15.406 80.6329 15.7127 80.6329 15.815C80.6329 15.9513 81.076 16.1899 81.076 16.2581V16.4967C81.076 16.9397 80.6329 17.1954 80.1728 17.1954C79.5082 17.1954 78.6561 16.9909 78.0255 16.7523C77.6847 16.5819 77.3268 16.3433 76.9519 16.241C76.8837 16.241 76.5088 16.1729 76.4577 16.1729C76.4577 16.1729 76.185 16.0024 76.0827 16.0024L75.9805 15.9343H75.9123L75.6056 16.0024C75.6056 16.0024 75.5374 15.9343 75.5374 15.7979H74.7023L74.6682 15.6957C74.3956 15.2526 73.8673 14.7243 73.2538 14.7243C73.1174 14.7243 72.4528 15.2696 72.2483 15.3889C72.0438 15.5593 71.5155 15.9854 71.4473 15.9854L71.1065 16.0536C70.6975 16.1558 70.8679 16.4626 70.6293 16.7182C70.527 16.7523 70.0328 17.2806 69.9306 17.4169C69.7942 17.5533 69.4023 17.8259 69.1296 17.8259C68.6865 17.8259 68.3286 17.4851 68.1582 17.1613V16.9909V17.0079ZM83.5642 17.3147C83.6323 16.1729 84.0073 15.1333 84.0754 13.9233V11.8101C84.0754 11.1966 84.5526 11.2648 84.7401 10.6342L86.0864 5.65794C86.2227 5.1126 86.325 4.68655 86.4272 4.14121L86.4954 3.80037C86.6317 3.45953 86.6658 2.89713 86.6658 2.89713C86.6658 2.79488 86.4954 1.61899 86.4954 1.58491V1.34632C86.4954 1.34632 86.325 0.681679 86.2227 0.545343C86.325 0.204503 86.4272 0 86.7851 0C87.2282 0 87.9951 0.374924 88.2678 0.732806C88.5745 1.20998 88.5745 1.60194 88.5745 2.1132C88.5745 3.15277 88.4723 4.22642 88.2678 5.19781C88.2678 5.36823 87.8928 6.97018 87.8928 7.1406C87.8928 7.31102 87.4157 8.81071 87.4157 9.01522C87.4157 9.15155 87.2452 10.2252 87.1771 10.4979V10.7024H87.978L88.2507 10.6001C88.2507 10.6001 88.7279 10.4979 88.7961 10.4979C89.0006 10.4979 90.0401 10.0889 90.2446 10.0889C90.79 9.95252 91.3864 9.95253 91.9488 9.81619C92.017 9.81619 92.3919 9.64578 92.4601 9.64578C92.7328 9.54352 93.3974 9.13451 93.4656 9.13451V9.27085C93.1588 9.81619 92.8691 10.2082 92.4601 10.7535C92.3919 10.8898 91.7614 11.9294 91.7614 12.0316C91.7614 12.0998 91.8295 12.0998 91.8295 12.3043C91.8295 12.3725 91.6932 12.5429 91.5909 12.5429L91.7614 12.6792V12.8497L91.6932 13.0201V13.395L91.3864 13.5654V13.6336C91.3864 13.9063 91.6932 14.0085 91.6932 14.0085C91.6932 14.3153 91.2501 14.4857 91.1308 14.5709C90.8922 14.8436 90.9604 14.9118 90.6877 15.1163C90.5173 15.2526 90.1424 15.2526 89.989 15.2526C89.8356 15.2526 89.3244 15.3889 89.2903 15.3889H88.9154C88.8131 15.3889 88.5404 15.423 88.4723 15.423C88.4723 15.423 88.2678 15.5593 88.1996 15.5593L87.9951 15.6616C87.6883 15.6616 87.3986 15.2526 87.16 15.1844L86.9214 15.2526H86.8874C86.8874 15.2526 86.6147 14.9117 86.4783 14.8436H86.0693C86.0693 14.9799 85.8308 16.0536 85.8308 16.224V16.5648L85.7967 16.7693C85.7967 16.9057 85.6944 17.0079 85.6944 17.1783C85.6944 17.2465 85.5581 17.9452 85.5581 18.0475C85.5581 18.0816 85.524 18.5928 85.3877 18.7462L85.3195 19.0189V19.6665C85.2172 20.5356 85.115 21.4047 85.115 22.2568V22.9897C85.115 23.126 85.3195 24.0974 85.3195 24.3019C85.5581 24.336 85.5581 24.7109 85.5581 24.9665C85.5581 25.0688 85.3877 25.0688 85.3195 25.0688C84.9787 25.0688 84.5185 24.0974 84.3481 23.7565C83.8198 22.4784 83.479 21.1662 83.479 19.8369C83.479 18.9337 83.479 18.252 83.5471 17.3147H83.5642Z" fill="#19191B"/>
<path d="M112.996 18.2181C112.996 18.0818 113.132 17.5194 113.132 17.4853L113.268 16.6503C113.337 16.156 113.575 16.0538 113.643 15.5085V15.4403C113.371 15.4403 112.399 16.548 112.161 16.8207L111.496 17.2979H111.462L110.491 18.0988L110.116 18.3033C109.911 18.576 109.741 18.6783 109.519 18.8316C107.815 19.7008 107.474 19.6667 107.099 19.8712C106.605 20.2121 106.332 20.1098 105.02 20.4336L103.776 20.7744H103.674C103.231 20.8426 102.907 20.9449 101.799 21.2516C101.731 21.2175 101.134 21.4561 101.032 21.4561L100.623 21.422C100.521 21.422 100.351 21.2175 100.248 21.1834C99.9756 21.0812 99.72 21.013 99.5155 20.8767C99.4473 20.8767 99.1746 20.4336 99.0042 20.2461C99.0042 20.2461 98.936 20.0757 98.8679 19.9394C98.7656 19.8712 98.7315 19.6667 98.7315 19.6667C98.7656 19.6326 98.5611 18.8316 98.5611 18.7635C98.5952 18.6612 98.4589 18.2863 98.4589 18.2693L98.493 18.0307C98.5952 17.0934 98.902 16.2242 99.2598 15.4403C99.4984 14.7756 99.9074 14.1621 100.299 13.5657L101.237 11.8615C101.237 11.8615 101.509 11.6229 101.509 11.5547C101.748 11.248 101.85 10.9242 102.004 10.5833C102.242 10.2766 102.651 9.64601 102.668 9.37334L102.736 9.10067C102.736 8.89617 102.242 8.79391 102.14 8.65757C102.004 8.65757 101.646 8.28265 101.543 8.28265L101.305 8.11223L101.032 7.87364C100.725 7.56689 100.436 7.46464 100.333 6.97042C100.368 6.45916 100.402 5.99902 100.811 5.59001L101.083 5.45367L101.748 4.94242L101.884 4.90833L103.197 4.49932L103.435 4.39708C103.537 4.39708 103.929 4.29482 103.998 4.32891C105.31 4.02215 106.707 3.88581 108.156 4.09032L108.36 4.15849C108.906 4.32891 109.161 4.22666 109.604 4.46524C109.741 4.5675 109.741 4.66974 109.945 4.60157L110.917 5.12988C110.917 5.12988 111.087 5.47072 111.087 5.60706L111.053 5.94789C110.985 6.47619 110.644 6.74887 110.184 7.12379L109.945 7.15787L109.349 7.65209C109.212 7.75434 108.684 7.99294 108.65 7.99294C108.207 8.09519 107.781 8.2656 107.27 8.33377C107.065 8.36786 106.571 8.60645 106.571 8.60645C106.571 8.60645 106.332 8.81095 106.332 8.87912C106.094 9.35629 105.855 9.61193 105.531 9.95277C105.259 10.464 104.969 11.1968 104.73 11.657L104.764 11.691C105.037 11.7251 105.736 11.5206 105.974 11.4525C107.014 11.4184 108.224 11.282 109.332 11.4525C109.4 11.3161 109.741 11.248 109.86 11.248L110.201 11.282C110.473 11.3161 110.712 11.3843 110.678 11.7251C110.678 11.9637 110.576 12.1682 110.439 12.3216L110.405 12.4239C110.303 12.3557 110.064 12.5602 110.064 12.5602C109.229 12.8329 108.224 13.1226 107.474 13.702C106.997 14.0088 106.639 14.3666 106.06 14.5371C105.991 14.503 105.514 14.8097 105.429 14.7416C104.526 15.1165 103.844 15.338 103.18 16.0197L102.276 16.9911V17.0934C102.276 17.1956 102.344 17.2638 102.413 17.2638H102.549C104.492 17.2638 106.383 16.3946 108.292 15.8493C108.565 15.8152 110.78 15.2187 111.053 15.1165C112.536 14.7075 114.001 14.1792 114.751 12.8329L114.921 12.4239C115.365 10.9071 116.097 9.47559 116.336 7.92477C116.37 7.22605 116.472 6.11831 116.2 5.47072C116.097 5.40255 115.688 4.46524 115.637 4.36298L115.501 3.9199C115.228 3.28935 115.007 3.01667 115.126 2.24978C115.16 1.73852 115.467 1.68739 115.961 1.73851C116.438 1.73851 117.001 2.18162 117.341 2.64175C117.341 2.64175 117.512 2.91442 117.512 3.05076L117.58 3.1871C117.682 3.28935 118.057 3.71539 118.057 3.81764C118.057 3.88581 118.159 4.19257 118.125 4.38003L118.228 5.11284C118.5 5.77747 118.398 6.76591 118.296 7.5328C118.057 9.40742 117.427 11.1627 116.711 12.8329C116.336 13.5997 115.739 14.8438 115.637 15.6789L115.842 15.713C115.842 15.713 116.217 15.5085 116.285 15.5085L117.461 15.3721C118.5 15.1676 119.54 14.6052 120.443 13.8895V14.094C120.409 14.5882 120.068 14.8949 119.949 15.338V15.6789L119.812 15.747C119.369 16.3776 119.182 17.0593 118.637 17.6898C118.568 17.8262 118.296 17.9284 118.091 17.9625C117.597 18.2011 117.393 18.2352 116.813 18.2693C116.575 18.2352 115.569 18.2693 115.467 18.2352L114.921 18.2011C114.785 18.2011 114.717 18.4397 114.717 18.5419C114.478 19.6156 114.41 20.5529 114.223 21.6606L114.018 23.4671C114.155 24.5748 113.848 25.6484 113.746 26.8243C113.746 26.8925 113.848 27.8639 113.848 27.9662L113.814 28.0002C113.302 27.9662 113.217 27.1311 113.166 26.7562C112.638 24.0635 112.604 21.7288 112.893 19.0361L113.03 18.167L112.996 18.2181Z" fill="#19191B"/>
<defs>
<linearGradient id="paint0_linear_4247_385" x1="3.94701" y1="7.70315" x2="24.7048" y2="20.7074" gradientUnits="userSpaceOnUse">
<stop stop-color="#E62419"/>
<stop offset="0.5" stop-color="#21499C"/>
<stop offset="1" stop-color="#F9C00F"/>
</linearGradient>
<clipPath id="clip0_4247_385">
<rect width="28" height="28" fill="white"/>
</clipPath>
</defs>
</svg>
