<svg width="40" height="41" viewBox="0 0 40 41" fill="none" xmlns="http://www.w3.org/2000/svg">
<g id="icon/star" clip-path="url(#clip0_5_567)">
<rect width="40" height="40" transform="translate(0 0.5)" fill="white"/>
<path id="Star 1" d="M19.0489 3.42705C19.3483 2.50574 20.6517 2.50574 20.9511 3.42705L24.2658 13.6287C24.3996 14.0407 24.7836 14.3197 25.2168 14.3197H35.9434C36.9122 14.3197 37.3149 15.5593 36.5312 16.1287L27.8532 22.4336C27.5027 22.6883 27.3561 23.1396 27.4899 23.5517L30.8046 33.7533C31.104 34.6746 30.0495 35.4407 29.2658 34.8713L20.5878 28.5664C20.2373 28.3117 19.7627 28.3117 19.4122 28.5664L10.7342 34.8713C9.95048 35.4407 8.896 34.6746 9.19535 33.7533L12.5101 23.5517C12.6439 23.1396 12.4973 22.6883 12.1468 22.4336L3.46877 16.1287C2.68505 15.5593 3.08783 14.3197 4.05655 14.3197H14.7832C15.2164 14.3197 15.6004 14.0407 15.7342 13.6287L19.0489 3.42705Z" fill="#7494EC"/>
</g>
<defs>
<clipPath id="clip0_5_567">
<rect width="40" height="40" fill="white" transform="translate(0 0.5)"/>
</clipPath>
</defs>
</svg>
