<svg width="235" height="96" viewBox="0 0 235 96" fill="none" xmlns="http://www.w3.org/2000/svg">
<rect width="235" height="96" rx="16" fill="#CCCCCC"/>
<circle cx="51.5" cy="47.5" r="18.5" fill="white"/>
<rect x="41" y="46" width="21" height="4" fill="#CCCCCC"/>
<path d="M121.555 50.5547V54.4609H107.648V65.5938H102.727V54.4609H89.0156V50.5547H121.555ZM97.7656 31.4141V35.5156H112.688V31.4141H117.688V47.1172H92.8438V31.4141H97.7656ZM97.7656 43.1328H112.688V39.4219H97.7656V43.1328ZM154.641 30.0469V65.5938H149.875V47.7812H146.867V63.9531H142.141V53.7578L139.328 57.5078C136.027 55.7695 133.898 52.8203 132.648 49.1484C131.457 53.3672 129.348 56.7852 125.969 58.7969L122.883 54.9688C128.273 51.9219 130.109 45.6328 130.109 38.8359V37.7031H124.094V33.7188H140.383V37.7031H134.953V38.8359C134.953 45.0273 136.789 50.9258 142.141 53.6797V30.5547H146.867V43.7188H149.875V30.0469H154.641ZM190.617 46.1797V50.2031H176.867V52.8203C183.059 53.2891 186.711 55.5156 186.75 59.1875C186.711 63.2891 182.062 65.5938 174.367 65.5938C166.555 65.5938 161.906 63.2891 161.906 59.1875C161.906 55.4961 165.598 53.2695 171.906 52.8203V50.2031H158.195V46.1797H190.617ZM174.367 56.4922C169.445 56.5312 166.945 57.3906 166.984 59.1875C166.945 60.9062 169.445 61.8438 174.367 61.8438C179.172 61.8438 181.711 60.9062 181.75 59.1875C181.711 57.3906 179.172 56.5312 174.367 56.4922ZM187.688 31.5703V35.4766H178.039C178.879 37.9766 182.492 40.3789 189.25 40.9453L187.492 44.8516C180.793 44.207 176.262 41.668 174.367 38.2109C172.492 41.668 168.039 44.207 161.281 44.8516L159.641 40.9453C166.223 40.3789 169.855 37.957 170.773 35.4766H161.164V31.5703H187.688Z" fill="white"/>
</svg>
