<svg width="235" height="96" viewBox="0 0 235 96" fill="none" xmlns="http://www.w3.org/2000/svg">
<rect width="235" height="96" rx="16" fill="#7494EC"/>
<path d="M60.9356 45.8489C63.4956 50.88 67.62 54.9867 72.6511 57.5644L76.5622 53.6533C77.0422 53.1733 77.7533 53.0133 78.3756 53.2267C80.3667 53.8844 82.5178 54.24 84.7222 54.24C85.7 54.24 86.5 55.04 86.5 56.0178V62.2222C86.5 63.2 85.7 64 84.7222 64C68.0289 64 54.5 50.4711 54.5 33.7778C54.5 32.8 55.3 32 56.2778 32H62.5C63.4778 32 64.2778 32.8 64.2778 33.7778C64.2778 36 64.6333 38.1333 65.2911 40.1244C65.4867 40.7467 65.3444 41.44 64.8467 41.9378L60.9356 45.8489Z" fill="white"/>
<path d="M120.523 35.6328C120.523 39.9297 123.023 44.0703 128.648 45.8281L125.992 49.6953C122.223 48.4453 119.586 46.0234 118.062 42.8984C116.52 46.4922 113.766 49.3047 109.703 50.6719L107.008 46.7656C112.945 44.7734 115.484 40.0469 115.523 35.1641V31.9219H120.523V35.6328ZM135.758 30.0469V38.3672H140.562V42.5078H135.758V51.1406H130.758V30.0469H135.758ZM124.117 51.8438C131.461 51.8438 136.109 54.3828 136.109 58.7188C136.109 63.0938 131.461 65.5938 124.117 65.5938C116.617 65.5938 111.93 63.0938 111.93 58.7188C111.93 54.3828 116.617 51.8438 124.117 51.8438ZM124.117 55.75C119.43 55.75 116.891 56.7656 116.93 58.7188C116.891 60.75 119.43 61.6875 124.117 61.6875C128.727 61.6875 131.188 60.75 131.188 58.7188C131.188 56.7656 128.727 55.75 124.117 55.75ZM170.328 30.0469V38.0547H175.133V42.1562H170.328V50.0078H165.328V30.0469H170.328ZM159.352 32.2734V36.2188H148.492V44.6953C154.918 44.6562 158.453 44.4219 162.438 43.6016L162.945 47.5078C158.492 48.5234 154.391 48.6797 146.5 48.6797H143.492V32.2734H159.352ZM170.328 51.4922V65.1641H147.086V51.4922H170.328ZM152.008 55.4375V61.2578H165.406V55.4375H152.008Z" fill="white"/>
</svg>
