<svg width="235" height="96" viewBox="0 0 235 96" fill="none" xmlns="http://www.w3.org/2000/svg">
<rect width="235" height="96" rx="16" fill="#EAEAEA"/>
<path d="M42.4356 45.8489C44.9956 50.88 49.12 54.9867 54.1511 57.5644L58.0622 53.6533C58.5422 53.1733 59.2533 53.0133 59.8756 53.2267C61.8667 53.8844 64.0178 54.24 66.2222 54.24C67.2 54.24 68 55.04 68 56.0178V62.2222C68 63.2 67.2 64 66.2222 64C49.5289 64 36 50.4711 36 33.7778C36 32.8 36.8 32 37.7778 32H44C44.9778 32 45.7778 32.8 45.7778 33.7778C45.7778 36 46.1333 38.1333 46.7911 40.1244C46.9867 40.7467 46.8444 41.44 46.3467 41.9378L42.4356 45.8489Z" fill="white"/>
<path d="M102.023 35.6328C102.023 39.9297 104.523 44.0703 110.148 45.8281L107.492 49.6953C103.723 48.4453 101.086 46.0234 99.5625 42.8984C98.0195 46.4922 95.2656 49.3047 91.2031 50.6719L88.5078 46.7656C94.4453 44.7734 96.9844 40.0469 97.0234 35.1641V31.9219H102.023V35.6328ZM117.258 30.0469V38.3672H122.062V42.5078H117.258V51.1406H112.258V30.0469H117.258ZM105.617 51.8438C112.961 51.8438 117.609 54.3828 117.609 58.7188C117.609 63.0938 112.961 65.5938 105.617 65.5938C98.1172 65.5938 93.4297 63.0938 93.4297 58.7188C93.4297 54.3828 98.1172 51.8438 105.617 51.8438ZM105.617 55.75C100.93 55.75 98.3906 56.7656 98.4297 58.7188C98.3906 60.75 100.93 61.6875 105.617 61.6875C110.227 61.6875 112.688 60.75 112.688 58.7188C112.688 56.7656 110.227 55.75 105.617 55.75ZM151.828 30.0469V38.0547H156.633V42.1562H151.828V50.0078H146.828V30.0469H151.828ZM140.852 32.2734V36.2188H129.992V44.6953C136.418 44.6562 139.953 44.4219 143.938 43.6016L144.445 47.5078C139.992 48.5234 135.891 48.6797 128 48.6797H124.992V32.2734H140.852ZM151.828 51.4922V65.1641H128.586V51.4922H151.828ZM133.508 55.4375V61.2578H146.906V55.4375H133.508ZM190.617 46.1797V50.2031H176.867V52.8203C183.059 53.2891 186.711 55.5156 186.75 59.1875C186.711 63.2891 182.062 65.5938 174.367 65.5938C166.555 65.5938 161.906 63.2891 161.906 59.1875C161.906 55.4961 165.598 53.2695 171.906 52.8203V50.2031H158.195V46.1797H190.617ZM174.367 56.4922C169.445 56.5312 166.945 57.3906 166.984 59.1875C166.945 60.9062 169.445 61.8438 174.367 61.8438C179.172 61.8438 181.711 60.9062 181.75 59.1875C181.711 57.3906 179.172 56.5312 174.367 56.4922ZM187.688 31.5703V35.4766H178.039C178.879 37.9766 182.492 40.3789 189.25 40.9453L187.492 44.8516C180.793 44.207 176.262 41.668 174.367 38.2109C172.492 41.668 168.039 44.207 161.281 44.8516L159.641 40.9453C166.223 40.3789 169.855 37.957 170.773 35.4766H161.164V31.5703H187.688Z" fill="white"/>
</svg>
