<svg width="157" height="157" viewBox="0 0 157 157" fill="none" xmlns="http://www.w3.org/2000/svg">
<g clip-path="url(#clip0_4281_62)">
<path d="M78.51 0.712524C35.57 0.712524 0.75 35.5325 0.75 78.4725C0.75 121.413 35.57 156.233 78.51 156.233C121.45 156.233 156.27 121.413 156.27 78.4725C156.27 35.5325 121.45 0.712524 78.51 0.712524ZM78.51 144.973C42.09 144.973 12.57 115.453 12.57 79.0325C12.57 42.6125 42.09 13.1125 78.51 13.1125C114.93 13.1125 144.45 42.6325 144.45 79.0525C144.45 115.473 114.93 144.993 78.51 144.993V144.973Z" fill="url(#paint0_linear_4281_62)"/>
<path d="M26.9501 68.0126C23.8501 87.4326 28.8901 104.113 43.5701 117.433C53.0501 126.033 64.2701 130.513 77.0701 130.733C97.4101 131.073 105.99 111.933 100.79 98.9726C98.3301 92.8326 94.5101 88.1526 88.4501 85.4526C80.7301 82.0126 73.5901 84.3126 66.3301 88.0726C49.9301 96.3526 32.1301 86.9926 27.5301 70.3526C27.3101 69.5726 27.1501 68.7926 26.9501 68.0326V68.0126Z" fill="#21499C"/>
<path d="M95.1901 128.753C113.55 121.733 125.49 109.033 129.69 89.6525C132.39 77.1525 130.67 65.1725 124.45 53.9925C114.57 36.2125 93.7101 38.3525 85.0901 49.3325C81.0101 54.5325 79.4901 61.4325 80.1701 68.0325C81.0501 76.4325 85.6701 79.9725 92.5701 84.3525C108.89 93.7125 109.03 114.773 96.9101 127.073C96.3501 127.633 95.7501 128.193 95.1901 128.733V128.753Z" fill="#F9C00F"/>
<path d="M113.67 39.2925C98.4101 26.8925 81.4301 22.9125 62.5501 28.9725C50.3701 32.8725 40.8701 40.3525 34.2901 51.3325C23.8301 68.7925 36.1101 85.7725 49.9501 87.7525C56.4901 88.6925 62.4701 87.7125 67.8301 83.8325C74.6701 78.8725 76.4901 71.7925 76.8501 63.6325C76.8501 44.5925 94.6501 34.2925 111.37 38.6325C112.15 38.8325 112.91 39.0725 113.67 39.2925Z" fill="#E62419"/>
</g>
<defs>
<linearGradient id="paint0_linear_4281_62" x1="22.67" y1="43.4925" x2="137.95" y2="115.713" gradientUnits="userSpaceOnUse">
<stop stop-color="#E62419"/>
<stop offset="0.5" stop-color="#21499C"/>
<stop offset="1" stop-color="#F9C00F"/>
</linearGradient>
<clipPath id="clip0_4281_62">
<rect width="155.5" height="155.5" fill="white" transform="translate(0.75 0.712524)"/>
</clipPath>
</defs>
</svg>
