<?xml version="1.0" encoding="UTF-8"?>
<svg id="Layer_1" xmlns="http://www.w3.org/2000/svg" version="1.1" viewBox="0 0 400 500">
  <!-- Generator: Adobe Illustrator 29.3.0, SVG Export Plug-In . SVG Version: 2.1.0 Build 146)  -->
  <defs>
    <style>
      .st0 {
        fill: #e46677;
      }

      .st1 {
        fill: #393d5d;
      }

      .st2 {
        fill: #f9bf80;
      }
    </style>
  </defs>
  <g>
    <path class="st1" d="M65.06,138.6c-.21-.03-.2.26-.25.41-.4,1.23-.82,3-1.03,4.28-.22,1.32-.56,7.95-1.14,8.45-.17.15-.54.16-.69.35-.37.46,0,3.08-.14,3.83.06.25,1.03.08,1.05.9.02,1.27-.5,3.08-.6,4.44-.06.9.04,1.83,0,2.73h-.59c.14.47.27,1.05.3,1.54.15,2.66.21,6.68,0,9.31-.08.96-.49,1.81-.45,2.8.07,1.87,1.29,3.88.87,5.88-.09.29-.44.28-.7.23l-1.25-3.99-1.43-11.93-.44,1.4c.27,4.96-.12,10.11.3,15.05.07.85.23,2.96.47,3.67.04.1.07.18.19.21l.8-.1c.19.12-.26,4.12-.41,4.33-.24.34-1.03-.07-1.26-.36-.54-.68-1.37-4.16-1.6-5.19-.81-3.56-1.23-7.23-1.13-10.89.67-.14.72.37,1.11.74.34-.62-.31-.69-.59-1.04-1.77-2.23-1.03-15.4-.65-18.64.66-5.56,2.17-11.09,2.49-16.69.04-.76-.18-3.99.17-4.33.17-.16.61-.1.78-.33.15-.2.4-1.66.47-2.04.67-3.41.74-6.91,1.15-10.36l1.94-3.82.43.14c.68,1.42-.24,2.89-.52,4.28,2.43-2.94,2.93-7.05,4.09-10.59.37-1.13.87-3.28,2.11-3.58-.05-.75-1.53-.59-1.48-1.39.01-.19.99-2.64,1.11-2.75.32-.29.58.03.96,0l.3-2.51c-1.77.06-.36-2.32-.07-3.24.15-.47-.1-1.05.59-1.18,1.41-.28,1.2.92,1.32.88.7-.32,2.02-1.56,2.27-.18.13.71-.95,2.18-1.27,2.95-2.58,6.26-5.81,19.23-6.24,25.93-.01.16-.1.7.15.67.38-.98.94-4.75,1.63-5.24.23-.16.68-.17.74-.33.91-4.77,3.13-9.14,4.5-13.77.24-.83.82-2.53.82-3.32,0-.47-.22.04-.59-.14-.82-.41.21-1.82.31-2.43.56-.17.77.34,1.17.58l2.16-5.31c-1.02-2.93,1.55-5.27,2.49-7.83.36-.38.79-.03,1.04.3.85-1.45,1.73-2.93,2.51-4.42.25-.48.81-1.41.95-1.85.13-.39-.56-.04-.73-.23-.31-.45.78-2.22,1.05-2.69.49-.84,2.91-4.6,3.58-4.84.33-.12.64.12.89-.13.52-.5,1.45-3.34,1.87-4.19,3.6-7.29,10.69-10.45,16.36-15.51.52-.46,1.11-.94,1.32-1.63.06-.21-.02-.26-.22-.22-1.75,1.4-3.77,2.41-5.58,3.72-5.59,4.01-9.3,10.12-14.27,14.81-.27.2-.69-.13-.8-.38-.41-.9.39-1.15.8-1.7,1.05-1.4,2.17-2.77,3.18-4.2.08-.12.4-.29.15-.44-.76.89-2.22,1.52-2.96,2.35-.52.58-.52,1.38-.95,2-1.3,1.88-3.74,3.74-5.23,5.54-1.29.58-.7-.96-.4-1.58.72-1.52,2.78-3.03,3.94-4.32,1.49-1.67,2.71-3.54,4.42-5.02,1.61-1.4,3.5-2.25,5.16-3.54,3.7-2.9,6.3-7.17,9.53-10.55.5-.34.87.72,1.23.66,2.59-2.44,6.4-3.63,9.08-5.83,1.33-1.09.9-1.49,1.66-2.47,1.05-1.35,5.34-1.42,6.92-2.23,1.12-.57,2.45-2.09,3.64-2.86,1.16-.75,2.81-1.55,4.08-2.12.43-.2,2.36-.78,2.44-.88.07-.09-.01-.43.05-.61.51-1.4,1.9-1.33,3.15-1.3.95.03,2.17.15,3.06.43,8.43-3.97,17.62-6.06,26.82-7.36l-.27-1.23c.22-.65,4.2-1.35,4.99-1.5,4.1-.79,9.36-1.5,13.51-1.26.31.02.5.28.7.27.81-.01,2.42-1.14,3.28-.42.26.21.26.57.4.71.78.75,12.21,1.09,14.06,1.53.85,0,.5-.38.88-.76,1.2-1.21,8.19.13,10,.5,1.67.34,12.83,3.18,13.39,2.6-.12-.68.46-.91.6-1.47-7.01-1.47-14.1-2.7-21.3-2.83-.25-.08-1.62-2.04-1.58-2.26.07-.32.99-.24,1.25-.22,4.09.25,9.14,1.14,13.24,1.81,3.21.53,6.58,1.05,9.63,2.18.12,0,.1-.36.32-.44.59-.21,4.79,1.66,5.68,1.97.41,1.4-1.91,1.1-2.82,1.12.07.24.58.36.81.44.83.32,2.38.73,3.25.73,2.67,0,4.12-1.69,7.06.32,1.33.91.9,1.99,1.56,2.82.28.35.96.16.75,1.13,1.15.1,2.27,1.08,3.1,1.85.28.26.55.89.88,1.04.45.2,1.91.12,2.54.26,2.56.58,4.24,4.74,6.97,5.57.48.14,0-.58-.02-.73-.06-.31-.01-.63.34-.72.76-.19,7.54,3.65,8.59,4.34,3.6,2.39,5.74,5.79,8.94,8.47,2.05,1.71,4.35,2.69,6.4,4.22,1.16.86,2.04,1.99,3.11,2.94.7.61,3.21,2.11,3.25,2.96.02.45-.18.51-.59.51-.03.15.02.19.07.3.21.4,2.24,2.26,2.73,2.73,3.61,3.44,7.59,6.44,10.85,10.25,8.38,9.81,16.16,27.36,19.89,39.73.19.63.65,1.99.65,2.58,0,.55-.46,1.12-.53,1.61-.16,1.15.27,2.24.52,3.3.12.51.12,1.11.21,1.63l.64-.02c.39.27.41,4.88.69,5.84.17.57.64,1.01.81,1.55.13.42.08,1.13.29,1.48.2.33.78-.41,1.17-.29.23.07.3.62.34.85.16.91.95,7.05.77,7.44-.09.19-.4.05-.3.79.04.29.34.19.42.61,1.19,6.16,1.8,13.03,1.96,19.3.07,2.95-.34,5.02-.6,7.83-.17,1.9-.1,3.85-.3,5.75-.19,1.88-.59,3.74-1.3,5.49l.65.64-2.93,15.17-.41.11c-.06,2.4-.86,4.84-1.57,7.11-4.42,14.08-11.35,27.24-19.29,39.6-1,.74-1.27-1.63-1.48-1.63-3.45,4.53-7.21,8.79-11.29,12.76-3.65,3.57-7.18,7.31-10.84,10.85-6.36,6.14-16.63,11.87-24.57,15.86-3.28,1.65-10.22,5.13-13.67,5.52-.89.1-2.24-.16-3.02.08-.72.22-1.82,2.57-2.77,1.98-.1-.06-.29-1.16-.61-.86-.48,1.57-1.65,2.5-3.32,2.36-.42-.04-.8-.24-1.2-.28-1.25-.13-1.74.77-2.89,1.21-5.08,1.9-12.42,2.44-17.88,3.23-3.13.45-6.48,1.37-9.62,1.31-24.28-.41-47.16-2.18-69.86-11.45-3.92-1.6-13.51-5.84-16.32-8.62-1.36-1.35-.12-1.85-.29-2.22-.06-.13-1.16-1.17-1.36-1.3-.52-.35-2.32-.78-2.39-1-.06-.17.21-2.82.31-3.05.24-.53.79-.06,1.14.13.92.51,2.97,2.26,3.71,2.5.24.07.47.33.73.43,1.95.71,3.53,1.99,5.06,2.92,6.74,4.09,17.92,7.03,25.66,8.88,11.6,2.76,23.5,5.07,35.45,3.18l1.57-.28c-3.11-.57-6.24-.03-9.37-.15-3-.11-6-.65-8.99-.9l-15.35-4.25-.09-.6c.93-.13,1.84.2,2.75.28.17.01.53.14.5-.13-8.27-2.53-16.32-5.94-23.86-10.16-5.41-3.03-11.19-7.61-16.12-11.48-17.6-13.82-31.92-34.68-39.71-55.62-1.11-2.97-3.37-8.83-3.54-11.81-.04-.79.06-.67.45-1.17-1.53-4.23-2.88-8.54-3.92-12.92-.92-3.9-1.44-7.88-2.25-11.77-.14-.69-.07-1.65-.21-2.3-.12-.54-1.3-1.8-1.3-2.39v-24.13ZM62.41,138.3l-.59.09-.59-.97-.32,5.07-.22.24-.5-.14.3,2.66.21-1.04.67-.14c-.22-2.01.67-3.83,1.04-5.75ZM59.16,159.11l1.18-12.39-1.33,3.91c-.27,1.41,0,2.79,0,4.13.01,1.28-.06,2.57,0,3.84,0,.18-.11.55.15.51Z"/>
    <g>
      <path class="st2" d="M178.65,296.13l-.24-.13c-5.57-.56-11.09-1.5-16.65-2.08-3.9-.41-7.84-.59-11.58-1.84-1.02-.34-.06-.88-.87-1.34-1.13-.64-4.34-1.3-5.83-1.83-6.39-2.27-12.79-5.54-18.61-8.97h-.32c-.27.82-1.06.9-1.84.84-1.11-.08-3.72-1.19-4.71-1.78-.28-.17-1.83-1.19-1.98-1.34-.72-.72-.27-1.84-.4-2.17-.21-.52-1.51-1.27-2.04-1.51-.73-.33-1.31.03-1.29-1.08,0-.31.15-.6.16-.89.02-.56-.22-2.22.52-2.29.55-.05,4.06,2.62,4.89,3.08,4.47,2.52,8.72,4.91,13.58,6.77,7.4,2.83,15.12,4.83,22.87,6.48,6.73,1.43,13.98,2.98,20.9,2.7.18,0,.55.11.51-.15-2.74-.47-5.54-.68-8.26-1.25-3.63-.77-8.28-2.07-11.83-3.22-1.22-.39-2.37-1-3.62-1.32-1.03-2.51,1-1.81,2.53-1.43,5.28,1.31,10.94,3.16,16.4,3.66,1.55.14,2.69-.52,4.27-.43,2.65.15,5.26,1.2,7.96,1.2.59,0,1.17-.28,1.77-.16.65.12.56,1.01.23,1.41-.15.18-.47.13-.45.36,2.11.3,4.23.11,6.34-.15.03-.24-.25-.09-.35-.33-.1-.22-.06-.58.15-.71.54-.34,7.11-.08,8.39-.13,14.53-.57,30.35-4.56,43.72-10.12,1.38-.57,5.78-2.89,6.86-2.88.22,0,.43.04.63.11,1.46,1.8-1.01,3.34-2.34,4.24-12.05,8.13-25.6,13.48-39.92,15.97-1.33.23-3.65.3-4.79.66-.24.07-.42.41-.76.57-2.94,1.33-8.19.58-11.36.73-.91.04-2.1.25-2.88.74h-9.73Z"/>
      <path class="st2" d="M54.92,163.96c.44-8.03,2.79-16.01,3.21-23.82.06-1.18-.18-2.36.04-3.68.14-.82.85-.51,1.15-1.65.95-3.52.69-7.38,1.2-10.9.11-.73,1.61-4.17,2.13-4.51,1.36-.9,1.11,2.29.82,2.96.24-.17.44-.69.57-.98,1.44-3.19,1.88-6.65,3.11-9.87.32-.82.54-1.58,1.33-2.06-1.32-.5-1.34-.84-.96-2.14.24-.82.78-2.37,1.84-2.07l.12-1.83c-1.93-1.1.22-3.23.4-4.8.6-.66,1.53-.28,1.92.43l.8-.29c.1-.41-.32-.26-.49-.63-.17-.37.93-2.37,1.15-2.91,1.05-2.65,1.75-5.5,3.62-7.74.47-.56,1.58-1.87,2.36-1.48.37.23.32.65.29,1.03-.1,1.74-3.67,9.83-4.93,11-.24.22-.47.42-.82.44.84,1.42-.6,3.04-1.15,4.38-1.86,4.61-3.24,10.52-4.36,15.41-.56,2.44-1.39,5.56-1.57,8.02-.01.16-.11.55.14.51.11-.77.66-3.28,1.43-3.51.56-.17,1,0,1.05.63-.36,1.85-.66,3.74-.86,5.61-.43,4.02-.25,9.34-1.05,13.11-.17.79-.64,1.46-.83,2.27-1.01,4.45,1.02,8.95.99,13.39,0,1.02-.24,2.01-.9,2.8,0,.31.46.41.67.67,1.09,1.33.58,4.88,1.07,6.54-.37.98-1.22.83-1.7,0-.6-1.04-.28-2.17-.53-3.15-.16-.63-1.41-1.88-1.41-2.43v-22.64l-.71,2.9c-.25,1.65-.46,7.86-1.27,8.76-.16.18-.52.3-.6.44-.28.49-.31,3.04-.08,3.58.09.21.53.12.71.29.4.39-.1,3.43-.12,4.16-.03,1,.33,3.61-.01,4.27-.12.23-.5.43-.54.63-.03.16.12.47.12.71-.03,2.85-.05,5.72-.16,8.56-.05,1.26-.39,2.31-.27,3.67.13,1.49,1.13,3.79.86,5.18-.08.4-.7,1.04-1.12.68-.15-.13-.79-2.24-.9-2.64-.99-3.5-1.08-7.24-1.53-10.86l-.28-1.12c.12.68-.13,1.35-.16,1.98-.13,2.81.18,5.61.31,8.41.12,2.75-.11,5.47.58,8.19.5-.27.98-.08,1.02.52-.33,1.08-.13,3.05-.53,4.02-.21.49-.94.34-1.31.03-1.09-.93-2.31-7.17-2.55-8.8-.28-1.88-.76-5.25-.62-7.06.05-.64.46-.66.46-.88,0-.56-.48-1.71-.59-2.38-.23-1.53-.51-3.71-.61-5.22-.08-1.24-.07-2.89,0-4.13ZM61.4,138.73v2.14c0,.08-.39.63,0,.66l.73-2.58-.73-.22ZM61.11,142.72l-.6.25.16,1.08c.57-.23.45-.81.44-1.33ZM59.19,150.61c-.15,1.26.11,2.77,0,4.06.2-.08.25-.76.28-.98.17-1.39.42-3.19.47-4.55,0-.16.09-.56-.15-.52-.08.65-.52,1.35-.59,1.99Z"/>
      <path class="st2" d="M197.38,20.43c.75.08,1.49.63,2.15.73,1.39.22,3.28-.12,4.68-.08.21,0,.88.07,1.03.12.56.19.68,2.46-.19,2.57l-9.36-.39c-.62-.09-1.04-.42-1.3-.99-1.19.05-2.38.43-3.58.56-3.46.36-7,.1-10.47.44l-6.27,1.03c2.09-.16,4.17-.58,6.27-.73.74-.06,1.63-.13,2.35-.16.52-.02,3.39-.11,3.48.25l-.03.77c-1.62.45-3.26,1.4-4.85,1.86-1.27.36-2.71.22-4.05.38-2.88.34-6.65,1.24-9.45,1.16-.84-.02-1.03-1.05-.64-1.66.34-.53,2.15-.88,2.79-.98-.11-.32-.61,0-.9-.35-.78-.96,1.14-1.81,1.82-2.05,5.9-2.1,12.68-.98,18.77-1.58,1.31-.13,2.29-.76,3.47-.88,1.02-.1,3.27-.11,4.28,0Z"/>
      <path class="st2" d="M234.24,108.35c-.01.26.39.17.55.33.31.31.25,1.95-.12,2.25-.3.24-4.52,1.08-5.34,1.3-11.17,3.03-19.9,7.75-23.46,19.46-1.57,5.19-3.85,16.97-3.02,22.12l.69,2.33c.25-2.23,1.18-4.76.89-7.01-.09-.72-.66-.38-.93-.99-.48-1.11.83-3.9,1.14-5.12.89-3.52.87-11.78,3.24-14.31.91-.97,2.06-.63,2.51-1.03.31-.27.91-2.46,1.23-3.05.98-1.83,2.19-1.08,3.32-1.99.48-.38.91-1.26,1.35-1.75,2.72-3.05,11.16-5.79,15.19-6.04.47-.03,1.81-.09,2.18.03.62.19.95,2.23,1.31,2.38,3.09.47,6.11,1.34,9.08,2.27,3.56,1.12,13.93,4.61,15.64,7.81.56,1.05-.03,1.73.03,1.81.04.05.82.47,1.03.67.63.6,1.12,1.66,1.84,2.15.84.57,1.9.37,2.8,1.18.79.72,1.68,3.11,2.8,3.1.67,0,.99-.4,1.75.16,1.26.94.28,2.92.4,3.07,1.56.38,2.6,2.4,3.45,3.71,1.36,2.1,5.38,8.8,5.53,11,.03.4-.06.84-.25,1.19-.23.41-.59.46-.7.63-.43.68,2.79,13.75,3.13,15.76,1.67,9.94,1.18,23.17-2.35,32.66-1.03,2.77-2.49,5.36-3.5,8.15-1.69,4.64-2.61,9.34-4.69,13.89-5.64,12.38-15.45,21.28-26.87,28.3l18.1-6.68c1.22-.2,1.89.09,1.56,1.41-.76,3.07-11.1,10.66-14.01,12.69-27.66,19.23-63.56,26.03-96.52,18.42-4.97-1.15-8.92-3.33-13.44-5.44-1.87-.87-2.51-1.1-4.48-1.71-6.93-2.16-15.86-9.22-21.49-13.91-17.83-14.84-31.67-35.54-39.31-57.45-.83-2.38-2.44-6.77-2.49-9.17-.01-.74.63-1.04,1.17-.58l4.68,10.8c6.09,8.77,10.54,18.98,19.12,25.71.11.02.1-.15.07-.22-.19-.45-1.08-1.67-1.41-2.13-2.74-3.72-7.33-6.96-9.08-11.27-.45-1.1-1.25-4.74-2.14-5.23-1.04-.58-1.6-.31-2.28-1.7-1-2.04-.93-4.86-2.06-7.38-2.97-6.62-5.62-12.29-7.83-19.31-.89-2.83-2.72-8.13-2.62-10.95.03-.97.73-.59.76-1.03-.6-3.07-1.08-6.18-1.34-9.3-.82-9.97-.13-21.88,2.14-31.64.15-.65.87-3.67,1.18-3.98.27-.27.71-.13,1.01,0,.44.28,0,2.86-.05,3.48-.39,5.43-1.57,10.77-1.92,16.23-.64,9.94,0,23.18,2.58,32.82.55,2.04,1.55,3.89,2.18,5.93,2.34,7.51,3.58,14.57,7.06,21.85,1.52,3.17,3.35,4.03,5.26,6.69,1.36,1.88,2.39,3.99,3.65,5.93,7.48,11.55,23.04,24.21,35.06,30.87.71.39,2.61,1.09,3.04,1.53.62.63.03,1.34-.59,1.63.34.46.32,1.14.49,1.58.21.54,1.21,1.07,1.66,1.44.53.03-.44-.56-.52-.66-.71-.86-.19-.91-.18-1.5,0-.39-.87-1.34.53-1.37l10.11,4.65c.48.54.22,1.23-.4,1.51-1.01.46-2.09-.06-3.09-.22-.16-.02-.51-.16-.48.11,2.12.29,4.39,1.41,6.45,1.74.15.02.37.14.33-.11l-.52-.29c-.25-.45.11-.91.59-.9,2.56.23,5.11,1.17,7.67,1.34,1.25.08.78-.1,1.46-.45,1.65-.87,7.05,1,9.06,1.44,4.14.9,7.63,1.43,11.9,1.08,3.92-.32,7.78-1.28,11.67-1.75,2.92-.35,6.27.06,8.76-1.72-.57-.24-.85-.91-.29-1.33,1.14-.11,2.27-.2,3.39-.44,9.17-1.93,25.37-13.63,30.79-21.27,2.08-2.93,3.69-6.41,4.89-9.78-1.84.53-1.84,2.73-2.32,4.24-1.16,3.6-8.67,10.78-11.77,13.31-.92.75-3.48,2.91-4.64,2.6-1.43-.38-.04-1.97.44-2.53,2.03-2.36,4.87-4.26,6.79-6.78l-.34-.05-4.38,4.32c-.73.34-1.01-.36-1.1-.36-7.23,7.61-17.34,12.26-27.5,14.53-40.24,8.99-86.49-20.39-103.26-56.32-1.47-3.16-5.64-12.28-5.59-15.37.01-.72.57-1.54.57-1.62,0-.06-.58-.64-.71-.88-.78-1.41-1.44-4.04-1.87-5.65-2-7.46-2.66-15.29-2.3-23.01.13-.34.68-.37.9-.15.52.53.65,4.83.79,5.92.93,7.01,3.64,13.77,4.8,20.72.09.53.41,1.9.35,2.31-.08.47-.49.43-.56.55-.28.47.93,3.87,1.19,4.58,2.22,6.12,5.84,13.88,9.14,19.48,10.82,18.38,37.14,36.03,56.97,43.18,8.52,3.08,18.21,5.32,27.21,3.24l-1.31-.68c-.23-.28-.11-.78.24-.91,4.6-.53,9.12-.72,13.58-2.05,2.5-.75,5.01-2.02,7.65-2.23.52-.04,1.29-.22,1.4.41h.18c2.99-2.46,6.07-4.84,9.02-7.36,4.8-4.11,9.33-8.26,12.76-13.64,15.53-24.34.82-47.14-21.14-59.84-1.12-.65-3.6-2.19-4.71-2.52-.73-.22-1.7.03-2.07-.9-.13-.33.08-.92.05-1.36-1.32-22.06,2.39-44.27,25.87-52.29,4.89-1.67,9.85-2.01,14.89-2.81.42-.07.86-.38,1.36-.42.74-.06,2.1.27,2.26,1.1.38,2.02-.77,2.54-2.5,2.88ZM133.81,255.42l-1.47-.59c.18.3.72.56,1.03.67.14.05.48.2.45-.08ZM134.85,255.86s-.66-.18-.74-.15c-.08.2.61.35.74.29,0-.05.02-.13,0-.14Z"/>
      <path class="st2" d="M141.61,31.06v.85s-5.14,2.39-5.14,2.39l3.75.57.06.88-5.77,3.15c-1.23,1.86-3.14,1.71-4.96,2.41-5.87,2.23-12.95,7.86-17.7,11.95-4.96,4.27-9.91,6.4-14.53,11.43-2.45,2.67-5.34,7.03-8.11,9.14-1.26.96-1.85.48-1.77-1.03l-4.57,4.72c-1.33.64-1.31-.21-.96-1.26.63-1.9,3.01-3.58,4.36-5.08,1.2-1.33,2.26-3.04,3.53-4.29,2.07-2.04,4.91-3.22,7.09-5.15,3.04-2.7,5.35-6.45,8.12-9.43.86-.55,1.32.37,1.72.26.14-.04,1.93-1.42,2.33-1.67,1.75-1.09,6.03-3.08,7.14-4.51.46-.59.53-1.31.98-1.82,1.19-1.37,4.09-1.45,5.76-1.91,2.04-.56,2.85-1.88,4.49-3.03,1.42-.99,3.04-1.78,4.62-2.46.49-.21,1.78-.54,2.07-.75.08-.06.14-.54.17-.69.02-.09.29-.39-.1-.26-2.24.76-4.59,2.48-6.86,3.32-.48.19-.89.08-.98-.45.03-.22.17-.37.32-.51.83-.85,3.42-2.34,4.55-2.98,2.15-1.21,7.34-3.68,9.68-3.89.25-.02.49.04.73.1ZM88.1,72.06c.72-.78,1.41-1.6,2.06-2.44.13-.16.85-.99.74-1.1-1.45.69-2.33,2.04-2.8,3.54Z"/>
      <path class="st2" d="M228.23,28.51c-.56-.54.49-1.5.41-1.59-5.66-1.21-11.39-2.25-17.18-2.66-1.31-.09-2.65.08-3.96-.17-.42-.61-2.58-2.96-.76-2.93,5.4.72,10.82,1.29,16.18,2.26,1.92.35,4.67.71,6.43,1.39,1.21.47,2.84,2.39,1.88,3.59-.51.64-2.52.56-2.99.11Z"/>
      <path class="st2" d="M214.46,244.96c.07.11.06.71-.01.83-.05.09-1.37,1.1-1.6,1.27-2.66,2.01-10.03,6.72-13.19,6.87-2.12.11.07-1.66.68-2.13,2.99-2.3,8.45-5.07,11.98-6.45.66-.26,1.47-.73,2.14-.4Z"/>
      <path class="st2" d="M246.89,106.32c.26.32.29,1.86-.03,2.18-.24.24-2.29.16-2.81.15-1.11-.03-2.41-.23-3.53-.3-1.97-.12-3.34.6-2.69-2.1.45-1.88,3.99-1.17,5.42-.93.61.1,3.35.64,3.64,1Z"/>
      <path class="st2" d="M101.74,260.94c1.24-.03,4.63,2.48,5.84,3.24.45.28,1.69.76,1.73,1.22.02.2-1.69,2.83-1.88,2.93-.27.13-.59.12-.82-.07-1.59-1.85-3.76-3.33-5.05-5.42-.38-.62-1.12-1.86.19-1.89Z"/>
      <path class="st2" d="M188.21,256.62c-.39-.24-2.9.94-3.56.69-.45-.36-.74-1.15-.38-1.66.35-.51,1.28-.3,1.79-.42,2.2-.49,4.5-1.95,6.83-1.15.98.34,1.48,1.47.33,1.97-.57.24-3.65,1.13-4.18,1.14-.82.02-.65-.46-.83-.57Z"/>
      <path class="st2" d="M77.08,98.86c-.18-.15-.34-.81-.35-1.06-.02-1.47,1.98-5.49,2.9-6.7.84-1.11,1.97.19,1.46,1.61-.7,1.96-1.86,3.96-2.65,5.9-.25.38-1.02.53-1.36.26Z"/>
      <path class="st2" d="M133.81,255.42c.03.27-.31.13-.45.08-.31-.11-.85-.37-1.03-.67l1.47.59Z"/>
      <path class="st2" d="M134.85,255.86s0,.1,0,.14c-.12.06-.82-.1-.74-.29.08-.04.69.11.74.15Z"/>
    </g>
    <g>
      <path class="st0" d="M275.48,155.11l-2.64-4.82c-.21-.5-.56-1.39-.6-1.91-.02-.22-.12-.41.21-.35l2.44,2.51c-.47-2.89-1.24-6.12-3.83-7.82-.31,1.25,1.61,2.91.87,4.04-.12.18-.18.29-.42.24l-2.33-6.6c-.09-.81,1.2-.8.56-1.95l-1.62,1.33c-.29-.99-2.85-4.7-3.76-4.71-.36,0-1.15.53-1.41.37-.5-.74-.91-1.98-1.55-2.59-1.04-1.01-4.89-2.53-4.95-4.06-.05-1.07,1.02-.55,1.78-.66-5-3.51-11.36-4.37-17.01-6.52-.9-1.51-2.84-1.66-4.48-1.87-3.46-.44-7.21-.5-10.62.27l-.73-.88c-2.49,1.52-5.56,1.56-7.69,3.74-.96.99-2.62,4.5-3.83,4.67-.41.06-1.04-.21-1.24-.08-.25.16-1.45,3.82-1.74,4.46-.07.16-1.39,2.83-1.5,1.89v-1.47s-.29-1.4-.29-1.4c-.92,2.6-1.59,5.19-2.04,7.92-.77,4.58-.82,8.54-1.06,13.11-.16,3.08-.97,6.08-1.63,9.07-.26,0-.67.08-.88-.06-.25-.16-1.42-4.85-1.47-5.47-.55-6.7,2.04-22.98,5.09-28.99,4.15-8.18,13.54-12.14,21.92-14.46-.5-.65-1.89-.05-2.58.15-1.16.32-3.03,1.3-4.02,1.45-.62.09-1.2-.18-1.88-.12-1.05.1-4.18,1.71-5.24,2.28-4.06,2.21-6.98,5.65-10.55,8.49-.16-.22-.07-.64,0-.89.3-1.25,2-3.5,2.88-4.5,5.69-6.47,15.22-7.92,23.17-9.96l-.74-1.18.88-.29c-5.9.3-11.88,2.41-17.07,5.14-12.21,6.41-18.22,17.94-19.67,31.38-.65,6.01,0,12.1-.47,18.12-8.74,6.19-19.27,11.19-30.03,12.47-17.66,2.11-32.72-6.12-39.88-22.36-.27-.61-1.45-4.14-1.64-4.27-.17-.12-.59-.01-.71.12-.37.42.31,1.74-.33,2.25l-.37-.08-2.85-8.78c1.41-1.27.92,1.29,1.88,1.55l-.44-4.13-1.03.29c-.96-3.58-1.65-7.38-.88-11.07,1.64.35.49,2.29.74,3.47l.59,3.17.15-7.15.88-8.78-.88.15c-.3-6.09,1.1-11.47,3.96-16.77,3.19-5.9,8.21-12.86,12.64-17.9,7.97-9.06,19.22-14.57,29.1-21.22l12-6.08c-1.78.4-3.61.68-5.37,1.19-3.08.89-6.93,3.09-9.83,4.63-9.6,5.09-19.45,12.1-27.23,19.7-12.92,12.6-21.62,35.32-19.84,53.34.73,7.34,3.36,18.74,7.06,25.11,1.32,2.28,3.84,3.89,3.86,6.69-.28.06-.35-.16-.52-.29-2.41-1.98-4.85-5.46-6.48-8.13-.86-1.41-2.11-4.39-2.97-5.45-.06-.07-.18-.2-.22-.15v.65c2.02,4.22,3.56,8.85,6.14,12.76,1.32,2.02,1.55,1.88,3.38,3.11,2.12,1.42,3.48,4.53,4.5,6.79-.41.31-2.58-1.43-3.02-1.77-10.41-8.15-15.89-22.09-17.61-34.92-.34-2.51-.05-5.95-.84-8.16-.23-.64-.75-1.16-.82-1.84-.6-6.28,3.63-12.32,2.55-18.71l6.55-14.12-.8-.94,3.19-6.55.03-.7-.29-.07c-.77,1.09-1.52,3.02-3.1,2.8-.46-2.12,1.6-2.84,2.43-4.14.37-.58.45-1.42.76-2.04.43-.88,1.58-2.27,2.21-3.1,1.7-2.21,3.6-4.27,5.59-6.21.62,3.17-3.35,4.55-3.91,7.38.88-.64,1.87-1.4,2.66-2.14.85-.79,2.19-1.93,2.35-3.11.1-.77-.19-2.36.17-2.92.2-.31.82-.45,1.12-.73.88-.82,1.99-2.75,2.93-3.79,2.47-2.76,5.76-4.62,8.12-7.08.34-.35,1.14-1.82,1.35-1.89.85-.29,1.99.33,2.63-1.05l.46.73,1.24-.29-.07,2.65c1.88-1.87,4.37-4.02,6.9-4.91,1.12-.39,2.31-.5,3.43-.85,3.39-1.08,6.04-3.8,9.28-5.18,2.04-.87,4.98-1.61,7.18-2.26,1.26-.37,2.57-.62,3.84-.96.07-.35-.05-.24-.19-.33-.66-.43-1.63-.71-2.32-1.14.28,2.9-3.85,2.15-5.67,1.93-.53,1.18-1.28,1.64-2.4,2.18-3.98,1.94-8.76,2.51-12.52,5.01-1.15-.93,1.3-2.86,2.07-3.51,3.18-2.63,8.14-4.8,12.05-6.1,1.31-.43,4.41-1.48,5.65-1.45.5.01,1.06.39,1.44.29.43-.11.68-.98,1.06-1.31.98-.84,4.43-1.79,5.8-2.17,7.02-1.94,14.23-2.68,21.5-3,3.52-.15,7.92-.4,11.37,0,1.25.15,2.4.18,2.67,1.63,2.27-.46,4.13-.87,6.48-.75,7.81.39,16.27,3.51,23.71,5.8,9.71,2.99,18.18,4.85,26.09,11.69,1.77,1.53,3.36,3.49,5.09,4.94,2,1.67,4.95,2.55,6.27,4.87.63-.59.37-1.12,1.48-.82,2.77,2.11,4.82,5.13,7.44,7.46.91.81,2.12,1.47,2.94,2.22,2.29,2.09,5.95,6.72,7.99,9.28.26.33.49.68.8.98l-.85,1.03c.45,2.04,2.56,1.45,3.74,2.71,1.16,1.23,1.24,3.4,2.22,4.71.57.77,1.88,1.43,2.56,2.16,1.8,1.95,2.28,5.92,3.43,8.37,1.05,2.23,2.96,4.22,3.99,6.49,1.01,2.22.95,4.75,1.74,7.04l1.18-.74c.09,2.82,2.38,5.04,1.92,7.97l.88-.29c.21.15.32,4.45.48,5.2.28,1.3,1.01,1.8,1.14,3.43.13,1.69-.02,3.6.15,5.31.08.77.18,2.35,1.18,2.29l.44-1.18c.45,3.48-.15,7.04,0,10.55.24,5.77,1.39,10.9.72,16.79-.58,5.16-2,10.29-2.19,15.52-.02.46-.09,1.51.03,1.89.13.43.79.45.93.69.46.75-.86,3.27-.52,4.28-1.87.13-.38-1.78-1.33-2.51-.18,1.39-.36,2.78-.64,4.16-.56,2.78-1.79,6.18-2,8.92-.09,1.15.27,2.25.12,3.36-.11.82-.73,1.78-.72,2.67,0,.47.31.91.29,1.39-1.22.16-1.95.78-1.92,2.07l-1.03-.74c-.85,4.49-1.6,8.44-3.56,12.59-5.49,11.57-14.58,24-23.74,32.93-3.66,3.57-7.18,7.3-10.84,10.85-4.71,4.56-10.55,8.12-16.21,11.38-5.77,3.33-13.29,7.49-19.61,9.46-2.12.66-2.53.5-4.61.54-1.58.03-1.66,1.12-2.59,1.85-1.04.82-.76-.03-1.17-.58-.45-.6-1.21,1.32-1.49,1.61-1.6,1.67-2.76.24-4.14.43-.68.09-1.44.93-2.17,1.23-5.24,2.13-14.36,2.75-20.16,3.6-3.17.47-4.86.89-8.14.85-7.16-.07-14.1,0-21.26-.59-19.77-1.59-44.42-6.9-61.36-17.44-.7-.44-3.29-1.99-3.18-2.81.02-.18,1.51-2.97,1.69-3.2.11-.15.15-.26.37-.24,1.26.11,6.71,4.77,8.21,5.81,26.43,18.47,67.2,19.21,97.12,9.66,8.25-2.63,15.93-8.1,23.79-11.78l.6-.65c-.25-.03-.47.03-.71.1-3.13.88-6.86,2.82-10.03,3.99-34.37,12.71-77.46,9.24-108.64-10.38-1.3-.82-2.69-1.69-3.7-2.86,6.41,2.61,12.4,6.14,18.85,8.67,30.05,11.75,65.03,8.04,93.23-6.9l-1.04-.15c-2.43.09-5.11,1.94-7.39,2.21-.51.06-1.05.09-.94-.57,3.71-1.91,7.85-2.56,11.8-3.77,5.28-1.63,9.37-4.52,13.71-7.83,3.24-2.47,6.39-5.13,9.31-7.95.07-.36-.28-.23-.48-.19-3.05.67-9.88,5.88-13.14,7.66-14.9,8.13-33.52,14.34-50.5,15.76-3.97.33-7.5.55-11.37-.58-.22-.06-.26.08-.21-.3,1.08-.62,5.93.03,6.46-.48.16-.16.15-.6.48-.77.62-.32,1.7-.17,2.36,0,.6.15,1.48.72,1.97.67.38-.04,1.71-1.01,2.3-1.25,2.79-1.13,6.94-2.21,9.91-2.93.56-.14,4.23-.99,4.4-.84l-.37,1.18c1.14-.99,2.71-1.35,4.21-1.33-.16-.3-.32-1.02.09-1.16,1.26.11,2.24-.21,3.41-.57,8.25-2.54,20.89-9.59,27.7-14.95,6.08-4.78,18.51-17.2,20.89-24.41.7-2.13.12-2.25,0-4.14-.11-1.78.99-.48,1.62-.88,2.63-4.51,3.09-9.83,4.2-14.84.18-.23.14-.11.3,0,.2.14,1.11,1.58,1.25,1.48,2.31-8.45,4.68-17.42,2.81-26.2l-1.34.09.89-5.46c.32-.06.5.29.56.55.23,1.03-.39,2.39.7,3.14.33.13.23-.38.22-.52-.04-1.08-.39-2.55-.67-3.61-.33-1.23-1.6-3.73-1.69-4.66-.06-.58.39-1.35.29-1.98.38-.5.33,1.29.59,1.18-.26-4.39-.76-8.87-2.03-13.1-.55-1.85-1.3-4.14-2.7-5.49v2.66ZM212.02,43.86c-1.86.63-3.69.42-5.61.29v.89c1.86.16,3.75.26,5.61,0v-1.18ZM221.32,52.42c-4.92-.23-9.89-1.08-14.79-.25-.56.09-2.45.47-2.83.71-.18.12-.29.18-.24.42,3.13.48,6.25-.3,9.36-.45,2.51-.12,5.59.3,7.98.01.3-.04.55-.07.51-.45ZM141.92,65.84c-.77-.23-1.36-.12-2.07.21-1.53.72-5.85,4.45-7.23,5.76-.91.86-1.88,1.62-1.62,3.03l10.92-9ZM114.91,102.29c-.39-.08-.25.1-.37.29-1.74,2.96-2.81,6.5-3.32,9.89,1.73-1.39,1.69-3.8,2.36-5.68.53-1.49,1.66-2.75,1.33-4.5Z"/>
      <path class="st0" d="M186.05,274.33l-.07.45-.3.14c-7.09.19-14.21-.25-21.1-1.92l.22.89-3.84-.44.3-1.03c-4.31-.4-8.23-1.27-12.29-2.69-4.07-1.43-9.51-3.53-13.2-5.69-1.71-1.01-4.72-3.84-6.75-3.56-.41.06-3.2,1.72-3.01.4.15-1.01,3.7-3.77,4.69-4.02,1.39-.36,3.02.6,4.24,1.23,3.44,1.79,6.48,4.19,10.03,5.91,12.65,6.12,27.21,8.66,41.08,10.35Z"/>
      <path class="st0" d="M150.44,57.6c.44-.05.55.17.42.57-.27.82-3.65,3.16-4.51,3.33-.72.14-.71-.34-.43-.88.47-.88,3.55-2.91,4.52-3.02Z"/>
      <path class="st0" d="M277.99,160.12l1.33,6.2c-.38,0-.78.12-1.02-.23-.17-.25-.95-2.74-1.01-3.13-.11-.77,0-1.96.37-2.65.09-.17,0-.25.33-.19Z"/>
    </g>
  </g>
  <g>
    <path class="st1" d="M286.87,370.2c-1.16.45-2.3.99-3.49,1.33-1.1.31-2.28.67-3.38.55-2.44-.26-4.37,1.14-6.53,1.76-.25.07-.46.99-.36,1.45.14.62.62,1.16.91,1.76.18.37.47.86.36,1.17-.54,1.41.21,2.56.57,3.82.45,1.54.95,2.19,2.5,1.93,2.74-.46,5.42-1.19,8.14-1.76.7-.15,1.43-.08,2.14-.17.58-.07,1.23-.11,1.71-.39,1-.58,1.94-.8,3.09-.43.77.25,1.63.27,2.45.28,1.02.02,1.6.5,1.61,1.49,0,.69,0,1.49-.32,2.05-1.17,2-2.34,4.03-3.78,5.84-.65.82-1.88,1.34-2.94,1.64-2.63.76-5.38,1.12-7.95,2.02-1.44.5-2.75,1.4-4.22,2-2.17.88-2.72,2.66-2.18,5,.12.51.12,1.07.1,1.6-.08,1.91-.24,3.81-.28,5.72-.02,1.08.43,1.35,1.43.93,1.71-.73,3.34-1.64,5.1-2.23,2.15-.72,4.38-1.27,6.6-1.75,2.3-.5,4.66-.78,6.96-1.3.77-.17,1.5-.72,2.13-1.24,1.63-1.34,3.45-1.75,5.5-1.45,1.36.2,1.57.65.92,1.82-.44.79-.83,1.62-1.16,2.46-.6,1.55-1.39,2.88-2.84,3.83-1.45.96-2.7,2.24-4.15,3.21-1.05.7-2.24,1.38-3.45,1.63-3.27.67-6.25,2.03-9.2,3.5-1.51.75-2.87,1.79-4.35,2.6-1.6.88-3.31,1.55-4.87,2.49-3.52,2.13-7.54,3.02-11.21,4.78-3.28,1.57-5.52-1.5-5.62-4.42-.02-.44-.04-.96-.26-1.31-.58-.92-.65-1.77,0-2.67.16-.23.29-.53.3-.81.08-3.54,1.66-6.53,3.27-9.57.89-1.69,1.25-3.61,1.23-5.63-.03-2.55.38-5.1.61-7.65.17-1.93.38-3.85.53-5.78.14-1.81.16-3.62.33-5.43.21-2.27.53-4.54.79-6.81.28-2.46-.58-3.5-3.01-3.92-1.09-.19-2.19-.56-3.18-1.07-.56-.29-.93-.98-1.3-1.55-.54-.82-1.01-1.69-1.5-2.54-.37-.64-.72-1.29-1.06-1.94-.11-.22-.12-.56-.29-.67-1.58-1.06-1.24-2.72-1.02-4.09.17-1.06.9-2.21,1.71-2.94,1.24-1.11,2.89-1.5,4.56-1,1.2.36,2.22.09,3.38-.25,2.41-.7,4.76-1.55,7.41-1.34,1.95.15,3.95-.44,5.94-.62.81-.08,1.73-.17,2.45.12,1.34.54,2.57.24,3.9.14,2.72-.19,5.46-.09,8.19-.1.75,0,1.5.03,2.24,0,2.65-.09,4.64,2.41,3.91,4.94-.85,2.95-2.41,5.41-4.86,7.3-.56.43-.93,1.13-1.53,1.45-.75.41-1.65.55-2.48.81-.07-.19-.13-.37-.2-.56Z"/>
    <path class="st1" d="M205.98,426.06c-.15-.9-.41-1.79-.44-2.69-.06-1.99-.22-4.01.03-5.97.58-4.46.42-8.9.19-13.36-.17-3.28-.25-6.57-.4-9.85-.04-.78-.23-1.56-.36-2.34-.05-.29-.19-.57-.2-.85-.05-2.27-.07-4.53-.1-6.8,0-.46-.03-.91-.06-1.37-.03-.5-.25-1.05-.11-1.48.84-2.52.59-5.14.72-7.72.1-1.87.04-3.74.21-5.6.23-2.33.8-4.59,2.11-6.6.17-.27.28-.62.29-.94.14-2.81.04-5.65.46-8.41.24-1.56.08-2.97.03-4.48-.14-3.74,2.16-6.49,6.24-5.82,1.2.2,2.48-.06,3.71-.22,1.28-.17,2.2.14,2.98,1.28.85,1.22,1.93,2.29,2.96,3.37,1.19,1.25,1.53,2.67.93,4.26-1.1,2.95-2.4,5.84-3.35,8.84-.58,1.84-.66,3.84-.97,5.76-.19,1.17-.42,2.34-.54,3.51-.07.65-.19,1.57.16,1.9.37.35,1.36.36,1.91.13,3.61-1.5,7.28-2.71,11.11-3.6,2.16-.51,4.27-.93,6.48-.99.78-.02,1.57-.23,2.32-.48,1.95-.63,3.45-.18,4.35,1.69.71,1.49,1.11,3.12,1.68,4.69.21.58.43,1.18.76,1.7,2.01,3.25.06,7.17-3.73,7.45-.36.03-.74-.05-1.1-.12-1.78-.36-3.55-.83-5.35-1.06-2.72-.35-5.55-.18-8.16-.9-2.19-.6-4.12-.38-6.22.02-.97.18-2.07-.09-3.07-.31-1.28-.28-2.34.03-3.16.99-.75.88-.6,1.86-.31,2.94.38,1.37.78,2.78-.09,4.22-.29.48-.03,1.33.08,1.99.15.89.67,1.79.58,2.64-.24,2.16.7,4.06,1.05,6.07.5,2.91,1.2,5.79,1.78,8.68.29,1.45.4,2.94.77,4.36.64,2.48,1.39,4.94,2.16,7.38.39,1.24.2,2.32-.34,3.49-.59,1.26-1.01,2.62-1.31,3.98-.39,1.75-1.19,2.62-3.05,2.73-3.01.18-5.79,1.17-8.61,2.1-1.07.35-2.36.17-3.53.02-.43-.06-.97-.69-1.13-1.18-.32-.97-.42-2.02-.61-3.04.08-.02.17-.03.25-.05Z"/>
    <path class="st1" d="M336.77,389.42c.24,1,.53,1.99.72,2.99.45,2.39,1.13,4.79,1.2,7.2.11,3.78-.21,7.58-.38,11.36-.02.39-.25.78-.41,1.15-.15.34-.41.64-.51.99-.6,2.06-1.13,4.15-1.77,6.2-.29.94-.73,1.85-1.2,2.72-.62,1.12-1.22,2.3-2.08,3.23-.72.78-1.73,1.39-2.73,1.8-.92.38-1.6.78-1.86,1.79-.36,1.4-1.45,2.05-2.74,2.22-1.32.17-2.14-.78-2.55-1.84-.9-2.31-2.13-4.54-2.02-7.15.02-.45-.04-.95-.24-1.34-.93-1.91-.41-3.92-.48-5.89,0-.2.05-.42.13-.6,1.27-2.73,1.76-5.71,1.61-8.6-.13-2.59.07-5.13.05-7.69-.03-3.36-.27-6.71-.54-10.06-.15-1.89-.54-3.77-.82-5.65-.05-.33-.11-.66-.12-.99-.14-3.93-.28-7.87-.4-11.8-.01-.49.12-.99.24-1.47.42-1.65,1.07-3.26.67-5.02-.04-.16-.02-.34.02-.5.43-1.79.71-3.64,1.34-5.36,1.21-3.36,1.16-6.8.96-10.25-.1-1.68-.27-3.24,1.57-4.2,2.03-1.06,3.99-1.79,6-.03,1.81,1.58,3.66,3.12,5.01,5.17,1.09,1.68,1.35,3.27.39,5.15-2.14,4.2-2.49,8.62-1.31,13.19.1.39,0,.92-.19,1.29-.51.97-.49,1.86-.06,2.87.24.57.21,1.27.2,1.91,0,.58-.22,1.16-.18,1.73.1,1.51,1.37,2.19,2.55,1.27,3.4-2.66,7.52-3.45,11.53-4.41,2.52-.61,5.15-.75,7.73-1.07.4-.05.82.05,1.23.12,1.62.3,3.23.69,4.86.91,1.39.18,1.81.49,1.6,1.91-.13.88-.57,1.71-.79,2.59-.32,1.23-.54,2.5-.87,3.73-.33,1.22-.71,2.43-1.14,3.62-.09.24-.51.48-.79.5-2.42.19-4.72.87-7.27.61-3.56-.36-7.22-.04-10.81.24-1.26.1-2.51.84-3.68,1.44-1.15.59-1.43,1.54-1.68,4.04Z"/>
    <path class="st1" d="M137.26,419.17c-.06-.71-.12-1.41-.18-2.12-.11-1.4-.11-2.75,1.05-3.82.29-.27.45-.7.61-1.08,1.21-2.87,2.35-5.77,3.63-8.61.55-1.24,1.38-2.35,2.07-3.52.29-.5.68-1,.78-1.55.44-2.37,1.78-4.28,2.95-6.3,1.67-2.88,3.3-5.78,4.95-8.67.35-.62.65-1.28,1.08-1.83,2.43-3.07,3.21-6.81,4.28-10.42.73-2.46,1.5-4.92,1.99-7.44.56-2.88,1.34-5.76.48-8.77-.27-.94-.04-2.1.23-3.08.16-.58.8-1.27,1.35-1.43,1.1-.3,2.33-.51,3.43-.32,3.52.62,6.8,1.99,9.65,4.13,1,.75,1.71,2.03,2.27,3.2.97,2.03,1.16,4.01,0,6.26-1.19,2.3-1.87,4.78-4.55,5.93-1.05.45-1.34,1.42-.65,2.51.77,1.22.73,2.41-.07,3.64-.28.43-.44,1-.49,1.52-.18,1.81-.36,3.62-.38,5.43,0,.65.41,1.31.68,1.94.25.6.8,1.18.8,1.77.02,1.66.92,2.78,1.93,3.93.53.61.88,1.38,1.34,2.06,1.03,1.54,1.91,3.23,3.16,4.57,1.67,1.79,2.58,3.85,3.14,6.14.37,1.51-.5,2.69-1.23,3.82-.88,1.36-1.93,2.62-2.99,3.85-.96,1.12-1.84,1.25-3.1.44-1.64-1.05-3.33-2.09-4.79-3.37-.94-.82-1.41-2.14-2.24-3.12-2.12-2.51-4.27-4.98-6.49-7.4-.73-.79-1.7-.61-2.24.28-1.58,2.58-3.05,5.23-4.58,7.84-.47.81-1,1.59-1.51,2.38-.04.07-.14.11-.17.18-.73,1.71-1.73,3.16-3.49,4.01-.27.13-.3.99-.28,1.5.06,1.72-.38,2.44-2.03,2.95-2.92.91-5.27,2.67-7.45,4.76-.39.37-1.15.71-1.59.58-.53-.16-1.02-.79-1.31-1.33-.22-.4-.09-.98-.11-1.48.02,0,.04,0,.06,0Z"/>
    <path class="st1" d="M36.88,408.9c0-.58-.12-1.2.03-1.74.15-.53.53-1,.88-1.45.43-.56.98-1.04,1.39-1.61.31-.43.43-.99.74-1.43,1.4-2,2.94-3.92,4.2-6,.64-1.05.98-2.27,2.06-3.02.06-.04.14-.15.12-.21-.54-1.99,1.45-2.76,2.03-4.21.63-1.58,1.89-3.12,1.91-4.69.02-2.17,1.29-3.64,1.9-5.45.29-.88,1.03-1.65.62-2.69-.04-.09.01-.29.09-.35,1.95-1.41,1.4-4.16,3.09-5.71.15-.13.25-.35.31-.54.41-1.45,1.07-2.69,2.28-3.7.47-.39.51-1.34.67-2.05.17-.76.1-1.62.4-2.31.87-1.97,1.91-3.87,2.82-5.83.29-.62.47-1.32.56-2,.17-1.23.24-2.48.36-3.73.02-.16.03-.37.13-.47,1.01-1.02,1.81-2.11,2.04-3.6.04-.24.99-.61,1.36-.48,1.58.56,3.14,1.21,4.64,1.98,1.02.53,1.89,1.34,2.89,1.94,2.02,1.21,3.17,3.64,2.71,5.87-.05.24-.11.52-.04.74.81,2.44-.17,4.62-1.04,6.76-.65,1.59-1.17,3.32-2.7,4.43-.26.19-.37.73-.38,1.12-.11,2.66-.25,5.32-.23,7.98,0,.73.39,1.49.75,2.17.57,1.1,1.25,2.13,1.88,3.2.13.21.23.45.37.65,1.81,2.49,3.67,4.94,5.43,7.47.97,1.4,1.82,2.89,2.58,4.41.22.45.04,1.21-.17,1.73-.61,1.49-1.33,2.94-2.03,4.39-.27.56-.56,1.13-.94,1.62-.87,1.13-1.83,1.35-2.9.42-2.44-2.13-4.79-4.37-7.13-6.6-.78-.74-1.47-1.59-2.19-2.4-.47-.53-1.11-1.03-1.3-1.65-.54-1.81-2.02-2.81-3.17-4.09-.73-.81-1.39-.71-2.04.19-1.73,2.39-3.48,4.76-5.19,7.17-.4.57-.64,1.26-.99,1.87-.41.71-.81,1.44-1.3,2.09-1.94,2.58-3.97,5.08-5.85,7.7-.91,1.28-1.83,2.11-3.51,1.66-1.19-.32-2.03.46-2.95,1.04-.86.55-1.79,1.05-2.75,1.37-1.5.49-2.56-.39-2.41-1.95Z"/>
    <path class="st1" d="M75.68,429.06c0,.16.03.03,0-.09-.73-2.4.27-4.51.98-6.72.85-2.65,1.16-5.49,2.2-8.05,1.37-3.37,3.17-6.58,4.91-9.8.66-1.22,1.62-2.28,2.48-3.38.56-.71,1.28-.68,1.81-.02.94,1.16,1.46,2.55.78,3.95-.74,1.52-1.77,2.9-2.62,4.37-.25.44-.43.97-.49,1.47-.17,1.35-.24,2.71-.41,4.06-.11.84-.37,1.86.54,2.22.58.23,1.59.02,2.13-.37,2.88-2.1,6.25-3.02,9.5-4.29,5.18-2.02,10.7-2.33,16.01-3.65,2.04-.51,4-1.34,5.99-2.02,2.5-.85,4.98-1.76,7.51-2.52,1.55-.46,3.15-.81,4.76-.97.78-.08,1.95.14,2.31.66.36.52.2,1.76-.2,2.39-1.69,2.64-1.64,5.61-2.02,8.53-.27,2.1-1.51,3.85-3.1,5.12-1.66,1.34-3.63,2.3-5.48,3.41-.24.14-.55.23-.83.23-2.48,0-4.95-.05-7.43-.06-.7,0-1.4.1-2.1.13-1.27.06-2.55.08-3.82.17-.56.04-1.11.22-1.66.34-.95.2-1.91.61-2.84.55-1.71-.11-3.25.17-4.85.81-3.33,1.33-6.71,2.51-9.73,4.47-.85.55-1.7,1.21-2.34,1.99-1.85,2.28-5.98,3.09-8.52,1.57-.32-.19-.66-.37-1.01-.49-2.32-.82-2.6-1.22-2.48-4.04Z"/>
    <path class="st1" d="M111.2,391.35c-2.53.03-3.16-.38-3.79-2.84-.41-1.59-.62-3.23-.92-4.85-.06-.33.01-.71-.12-.99-1.56-3.22-.69-6.61-.56-9.91.14-3.76.64-7.52,1.01-11.27.17-1.73.35-3.46.61-5.18.32-2.13.8-4.21,1.8-6.18.78-1.54,1.16-3.28,1.71-4.93.03-.08.05-.16.07-.24.76-3.14,3.02-4.97,5.68-6.39,1.83-.98,5.26.66,5.95,2.61.28.78.81,1.54,1.42,2.11,1.13,1.07,1.73,2.3,1.3,3.8-.73,2.51-1.32,5.12-2.47,7.44-1.15,2.33-1.12,4.75-1.39,7.16-.26,2.31-.12,4.67-.49,6.96-.71,4.42-.12,8.81-.12,13.21,0,1.81-.29,3.65-.68,5.42-.12.55-.98,1.27-1.55,1.31-1.6.12-2.79,1-4.11,1.69-1.03.54-2.14.92-3.21,1.37-.05-.11-.09-.21-.14-.32Z"/>
  </g>
  <g>
    <path class="st1" d="M357.71,475.01c-1.4-.09-2.78-.03-4.13.36-.26.08-.51.21-.77.31-1.03.4-2.05.85-3.1,1.18-.38.12-.89.06-1.26-.11-.79-.36-1.55-.72-2.45-.68-.51.02-1.05-.52-1.14-1.16-.1-.7-.14-1.42-.1-2.13.05-1.07.19-2.14.29-3.22.01-.13.02-.26.02-.39,0-1.14-.31-1.45-1.42-1.25-.92.16-1.58-.15-2.12-.87-.94-1.24-1.29-2.68-1.54-4.17-.04-.22-.18-.43-.27-.64-.21.1-.5.15-.63.31-.59.76-1.15,1.54-1.68,2.34-.35.54-.8.83-1.45.81-.46-.02-.85-.4-.88-.86-.04-.54.13-1.02.44-1.43,1.2-1.57,2.09-3.33,3.03-5.05.26-.48.6-.93.86-1.41.2-.36.4-.75.47-1.15.08-.45-.24-.8-.7-.73-.49.07-.96.3-1.44.45-.4.13-.8.3-1.21.36-1.02.16-2-.51-2.19-1.44-.07-.32-.02-.59.25-.78.3-.2.6-.45.94-.52,1.87-.39,3.74-.76,5.63-1.09.7-.12,1.42-.16,2.14-.14,1.58.04,2.14,1.67,1.4,2.71-1.07,1.49-2.21,2.93-3.36,4.35-.43.53-.78,1.08-.97,1.73-.18.61-.01.97.6,1.12.88.22,1.51.74,1.97,1.49.75,1.23,1.67,2.35,2.17,3.73.08.23.39.44.63.56.9.43,1.21.94,1.21,1.91,0,1.22.03,2.44.05,3.65,0,.09.03.17.05.26.26,1.14.72,1.43,1.88,1.24,1.39-.23,2.72-.65,3.99-1.27.48-.23,1.02-.33,1.55-.45.99-.22,1.92-.5,2.45-1.49.48-.89.32-2.01-.48-2.6-.59-.43-1.31-.32-1.99-.21-1.37.21-2.58.81-3.76,1.49-.18.1-.35.23-.54.28-.44.13-.9.22-1.28-.14-.39-.36-.66-.78-.51-1.35.13-.5.56-.67.97-.87.77-.38,1.56-.73,2.28-1.18.84-.53,1.72-.92,2.66-1.2.36-.11.72-.23,1.07-.37.6-.23.65-.6.17-1-.86-.72-1-1.64-.83-2.69.09-.55.1-1.13.07-1.69-.07-1.06-.81-1.57-1.83-1.21-1.36.48-2.7,1.04-3.9,1.86-.67.46-1.42.57-2.22.49-.54-.05-1.12-.48-1.24-.91-.15-.56.08-1.19.61-1.51.32-.19.68-.38,1.04-.44,1.74-.3,3.23-1.16,4.72-2.03,1.66-.96,3.03-2.21,3.96-3.91.42-.78.87-1.54,1.29-2.32.44-.82,1.02-1.49,1.93-1.8.89-.3,1.75-.03,2.33.73.55.73.55,1.65.01,2.4-.36.49-.8.94-1.07,1.48-1.03,2.03-1.81,4.15-1.68,6.48.08,1.42-.24,2.68-1.15,3.79-.17.21-.27.48-.37.74-.17.46-.01.74.47.73.58-.01,1.16-.09,1.74-.17.75-.1,1.49-.3,2.24-.33,1.1-.04,1.71.8,1.44,1.87-.23.89-.8,1.57-1.33,2.28-.35.46-.7.93-.98,1.44-.38.69-.32,1.4.08,2.08.12.2.25.39.37.6.62,1.11.05,2.42-1.2,2.63-.74.13-1.51.1-2.27.14Z"/>
    <path class="st1" d="M326.14,476.99c-2.14-.1-3.87.23-5.56.79-1.11.37-2.25.66-3.31,1.13-1.55.68-2.99-.89-2.74-2.28.13-.74.38-1.46.56-2.2.14-.55.24-1.11.37-1.66.36-1.56.72-3.12,1.09-4.67.04-.15.12-.3.19-.44.22-.48.72-.86,1.1-.79.53.09.74.51.82.97.25,1.33.26,2.65-.06,3.98-.18.74-.32,1.51-.34,2.27-.01.76.49,1.19,1.24,1.14.51-.03,1.05-.13,1.52-.32.96-.37,1.93-.54,2.95-.57.76-.02,1.52-.07,2.26-.2.76-.14,1.14-.58,1.12-1.09-.02-.52-.47-.96-1.21-1.06-1.46-.2-2.92-.35-4.38-.53-.24-.03-.53-.06-.69-.21-.18-.16-.34-.47-.33-.7.02-.38.31-.67.7-.74.77-.14,1.55-.26,2.33-.34.99-.11,1.98-.13,2.96-.26.84-.11,1.41-.75,1.49-1.59.04-.45.03-.9,0-1.35-.04-.54-.35-.8-.89-.83-.01,0-.03,0-.04,0-1.47.24-2.25-.59-2.8-1.78-.1-.22-.24-.43-.37-.64-.31-.5-.77-.75-1.36-.72-1.23.07-2.38.44-3.45,1.04-.92.52-1.45.51-2.3-.11-.09-.07-.19-.13-.29-.2-1.13-.75-1.55-.71-2.28.44-.4.62-.62,1.34-.95,2-.27.54-.52,1.12-.89,1.59-.89,1.12-2.12,1.29-3.45,1.04-.95-.18-1.87-.42-2.41-1.32-.71-1.19-1.3-2.43-.77-3.84.27-.71.66-1.4,1.12-2.01.69-.9,1.47-1.73,2.24-2.56.68-.73,1.22-.73,1.94-.01.39.39.75.81,1.13,1.21.74.78,1.69,1.25,2.69,1.59.34.12.83.04,1.17-.13,1.53-.75,3.12-1.3,4.76-1.74,1.01-.27,1.96-.74,2.93-1.15.73-.3,1.19-.87,1.47-1.6.5-1.32.95-2.66,1.52-3.95.36-.83.87-1.61,1.35-2.38.43-.69,1.11-.91,1.87-.72.74.18,1.03.82,1.21,1.48.25.93.03,1.82-.46,2.6-1.02,1.59-1.26,3.39-1.53,5.19-.11.75-.29,1.48-.41,2.23-.14.93-.29,1.86-.37,2.8-.06.65.3,1.1.87,1.39.43.22.89.4,1.25.7.78.63,1.16,1.52,1.18,2.49.06,2.23-.33,4.41-1.05,6.52-.37,1.09-1.2,1.72-2.32,1.89-.9.14-1.83.16-2.4.2ZM312.66,463.35c-.18-.39-.3-.75-.5-1.08-.52-.88-1.42-1.24-2.44-1.01-.72.16-1.14.73-1.25,1.7-.14,1.28,1.38,2.49,2.57,2,.43-.18.82-.48,1.17-.8.21-.19.29-.51.45-.81Z"/>
    <path class="st1" d="M201.35,458.8c-1.02.16-1.87-.16-2.57-.92-.69-.75-.79-1.69-.26-2.43.42-.59,1.06-.66,1.69-.62,1.02.07,2.01.3,2.97.69,1.38.56,2.78,1.05,4.18,1.57.03.01.06.02.08.03,1.12.32,1.25.22,1.62-.89.3-.89.8-1.42,1.92-1.2.58.11,1.13.37,1.7.55.68.21,1.21.06,1.54-.46.1-.16.13-.35.23-.52.24-.41.43-.87.76-1.2.86-.9,2.06-.56,2.31.65.1.45.07.96-.02,1.42-.38,1.82-.51,3.66-.4,5.51.11,1.74.27,3.48.41,5.21.07.87.1,1.75-.29,2.57-.28.59-.88.95-1.51.92-.65-.03-1.05-.35-1.29-1.04-.14-.4-.26-.8-.38-1.21-.29-.98-.78-1.38-1.81-1.37-.44,0-.87.08-1.31.12-.77.06-1.54.15-2.29-.18-.54-.23-.93-.62-1.15-1.14-.59-1.41-.63-2.05,1.3-2.29.81-.1,1.63-.1,2.44-.2.71-.08,1.43-.16,1.99-.7.58-.56.66-1.25.09-1.8-.94-.91-2.06-1.52-3.36-1.77-.51-.1-.74.06-.88.56-.18.69-.59,1.21-1.07,1.72-.5.54-.93,1.15-1.42,1.71-.49.56-1.03,1.07-1.5,1.63-.37.44-.68.94-1,1.42-.62.9-1.23,1.8-1.84,2.71-.45.68-.89,1.36-1.33,2.05-.4.64-.9,1.12-1.71,1.1-.66-.01-1.02-.42-1.04-1.08-.02-.68.28-1.24.65-1.77.94-1.37,1.95-2.69,2.85-4.08.65-1,1.24-2.05,1.72-3.13.48-1.09.04-2.22-1.45-2.16-.19,0-.38,0-.57,0Z"/>
    <path class="st1" d="M248.9,454.87c-.14.89-.31,1.78-.41,2.67-.09.78-.11,1.56-.13,2.34-.02.71.07,1.43,0,2.14-.13,1.39.06,2.75.19,4.13.1,1.07.02,2.15.05,3.22.02.72.12,1.45.18,2.17.04.52.14,1.04.12,1.56-.03.72-.4,1.26-1.12,1.45-1.08.29-2.15.3-2.92-.66-.3-.38-.5-.9-.57-1.39-.17-1.28-.27-2.57-.36-3.86-.06-.84-.06-1.69-.09-2.53,0-.09,0-.17-.02-.26-.04-.42-.11-.85-.54-1.03-.42-.17-.8.04-1.12.31-1.2,1-2.69,1.45-4.07,2.09-.82.38-1.69.53-2.58.6-1.35.11-2.49.79-3.65,1.41-.7.37-1.4.73-2.11,1.07-.33.15-.68.29-1.04.32-.33.03-.75.02-1-.15-1.05-.74-1.71-1.74-1.68-3.08.02-.64.43-1.15,1.07-1.26.51-.09,1.04-.16,1.56-.15,1.15.03,2.22-.22,3.28-.66.7-.3,1.47-.46,2.2-.7.55-.18,1.1-.37,1.64-.59.78-.31,1.55-.66,2.33-.97.84-.33,1.7-.62,2.54-.95.79-.31,1.57-.63,2.35-.95.74-.31,1.21-.85,1.4-1.62.52-2.03,1.03-4.06,1.55-6.09.12-.47.23-.98.78-1.11.56-.14,1.02.13,1.41.52.56.55.75,1.23.74,2.01Z"/>
    <path class="st1" d="M277.13,454c.21.02.49.03.76.08,1.23.22,1.74,1.27,1.11,2.36-.37.63-.87,1.14-1.62,1.31-1.05.24-2.12.43-3.16.69-.85.21-1.2.66-1.19,1.39.01.82.47,1.49,1.27,1.6.59.08,1.21-.03,1.81-.11.36-.05.69-.23,1.05-.29.37-.07.76-.12,1.12-.08,1.09.12,1.52.98.96,1.92-.39.66-.93,1.15-1.71,1.34-.62.16-1.25.31-1.86.49-1.04.31-1.77,1.01-2.22,1.96-.15.32-.17.74-.14,1.1.04.66.67,1.09,1.39,1,.24-.03.48-.11.72-.18.9-.25,1.79-.5,2.68-.76.52-.15,1.03-.32,1.54-.47.24-.07.48-.12.72-.13.42-.02.65.23.71.62.08.57-.1,1.07-.48,1.49-.71.76-1.56,1.28-2.55,1.63-1.11.4-2.19.87-3.26,1.37-1.27.59-2.5,1.26-3.77,1.85-.78.37-1.62.44-2.41.03-.28-.14-.56-.45-.65-.75-.23-.73-.1-1.47.18-2.17.18-.44.41-.87.66-1.28.5-.83.75-1.74.8-2.69.1-2.03.17-4.07.28-6.1.05-.9-.26-1.64-.89-2.28-.64-.65-1.3-1.3-1.85-2.03-.73-.97-.32-1.93.87-2.11,1.09-.16,2.2-.23,3.31-.33,1.7-.15,3.4-.28,5.1-.41.22-.02.44-.03.73-.04Z"/>
    <path class="st1" d="M118.9,472.55c.02-.3,0-.62.08-.91.5-1.86.28-3.73.08-5.59-.14-1.27-.34-2.55-.35-3.82-.01-1.54.13-3.08.26-4.61.04-.44.24-.87.39-1.29.55-1.5.63-3.07.71-4.64.02-.41.11-.84.25-1.23.2-.54.63-.81,1.22-.83,1.35-.05,2.27.67,2.95,1.72.5.76.26,1.53-.21,2.25-.46.69-.79,1.42-.91,2.25-.18,1.24.54,2.02,1.78,1.78.86-.17,1.69-.54,2.53-.8.78-.24,1.58-.34,2.36,0,.96.4,1.55,1.15,1.73,2.15.24,1.3-.59,2.14-1.93,2-.65-.07-1.3-.2-1.94-.31-.63-.11-1.26-.29-1.9-.3-.69-.02-1.4.04-2.07.21-.66.17-1.04.69-1.17,1.39-.19.99.04,1.94.2,2.9.23,1.39.42,2.79.69,4.18.15.77.39,1.52.63,2.26.42,1.31-.16,2.74-1.45,3.26-.58.23-1.23.35-1.85.43-1.29.16-2.1-1-2.06-1.98,0-.15,0-.29,0-.44,0,0-.02,0-.02,0Z"/>
    <path class="st1" d="M294.93,461.65c-.63.03-1.26.03-1.88.11-1.02.13-1.71.9-1.72,1.94,0,.52.01,1.06.12,1.56.32,1.46.25,2.92,0,4.38-.04.26-.08.52-.11.78-.24,1.65-1.25,2.86-2.34,4-.68.71-1.77.74-2.26.1-.22-.28-.39-.68-.4-1.03-.03-1.01,0-2.03.08-3.04.19-2.28.35-4.54.1-6.84-.27-2.36-.29-4.74-.11-7.11.07-.85.23-1.69.37-2.54.13-.8.28-1.6.43-2.4.06-.31.1-.64.22-.93.31-.76,1.09-1.02,1.75-.53.51.38.98.82,1.38,1.32.54.67.52,1.46.22,2.24-.45,1.16-.56,2.37-.59,3.6,0,.2.02.41.06.61.13.61.56.99,1.18.94.53-.05,1.07-.17,1.57-.35,1.16-.4,2.34-.62,3.57-.59.09,0,.18,0,.26,0,.7.08,1.41.24,1.7.96.29.74,0,1.42-.46,2.03-.44.59-1.05.81-1.76.83-.47.01-.93,0-1.4,0,0-.01,0-.03,0-.04Z"/>
    <path class="st1" d="M106.35,455.1c0-.38-.05-.79,0-1.17.23-1.4,1.15-1.93,2.47-1.43.82.31,1.51.82,2.05,1.51.57.73.64,1.5.14,2.31-.64,1.06-1.15,2.17-1.37,3.42-.28,1.67.1,3.14,1.03,4.51.55.8,1.12,1.6,1.57,2.46.49.93-.02,2.25-.94,2.76-.54.3-1.34.22-1.82-.29-.49-.52-.89-1.11-1.33-1.67-.22-.27-.42-.56-.65-.82-.63-.69-1.81-.75-2.37.24-.4.71-.73,1.45-1.13,2.16-.67,1.19-1.65,2.11-2.75,2.89-.66.47-1.42.37-1.67-.19-.12-.26-.11-.59-.09-.89.09-.93.48-1.78.99-2.54.67-1.01,1.11-2.11,1.56-3.21.08-.19.18-.37.28-.54.8-1.29,1.71-2.51,2.36-3.87.65-1.35,1.07-2.83,1.53-4.26.14-.43.08-.92.12-1.39Z"/>
    <path class="st1" d="M93.19,460.66c-.9-.04-1.58-.1-2.27-.1-1.07-.01-1.49.36-1.44,1.44.07,1.51.26,3.01.38,4.52.07.9.13,1.79.16,2.69.03.98-.4,1.79-.97,2.56-.4.54-.74,1.11-1.08,1.69-.44.77-1.04,1.03-1.96.82-.75-.17-1.21-.67-1.16-1.52.04-.82.15-1.66.38-2.44.42-1.44.47-2.89.33-4.36,0-.09-.02-.17-.02-.26-.03-1.5-.11-3-.07-4.49.03-.92.23-1.84.38-2.75.2-1.23.42-2.46.65-3.69.1-.55.16-1.13.37-1.64.26-.64.74-.85,1.37-.76.61.08,1.13.52,1.21,1.15.07.54.01,1.09-.01,1.64-.01.27-.09.55-.11.82-.09.96.44,1.6,1.4,1.71.67.08,1.26-.12,1.83-.45.71-.42,1.44-.83,2.17-1.23.77-.42,1.47-.21,1.9.55.08.14.14.29.22.43.95,1.59-.26,2.93-1.39,3.36-.23.09-.48.16-.72.19-.58.07-1.16.11-1.53.14Z"/>
    <path class="st1" d="M154.36,475.97c-.5.07-1.07.16-1.65.23-.45.06-.9.13-1.34.16-.82.04-1.63.07-2.45.08-1.26.01-1.89-.47-1.99-1.71-.17-1.96,0-3.9.85-5.71.21-.44.44-.88.72-1.27.49-.67,1.18-.76,1.92-.5.72.25,1.33.15,1.89-.38,1.07-1.01,2.42-1.39,3.84-1.62.99-.16,1.95-.48,2.92-.74.73-.2,1.46-.29,2.19,0,.69.27,1.01.82.92,1.55-.07.57-.36,1.03-.69,1.48-.8,1.09-1.56,2.21-2.33,3.32-.32.46-.32.96-.08,1.45.18.35.38.69.55,1.04.25.53.2,1.01-.22,1.4-.44.42-.91.83-1.41,1.17-.56.39-1.23.31-1.87.25-.57-.05-1.13-.12-1.78-.19ZM152.3,468.93c-1.29-.16-2.41.91-2.49,2.05-.04.7-.02,1.44.16,2.11.36,1.34,1.55,1.72,2.71.96.48-.31.99-.57,1.46-.88.41-.28.87-.54,1.15-.92.57-.77,1.06-1.6,1.52-2.44.3-.53.23-1.12-.13-1.61-.35-.48-.89-.58-1.42-.42-.46.14-.9.4-1.32.66-.51.31-1.02.56-1.64.49Z"/>
    <path class="st1" d="M49.05,454.45c-.1.25-.26.73-.47,1.18-.8,1.67-1.09,3.39-.37,5.14.24.58.7,1.06,1.05,1.6.36.55.73,1.09,1.06,1.65.36.62.33,1.3.15,1.95-.28,1.02-1.09,1.31-2,.75-.74-.45-1.26-1.12-1.71-1.84-.24-.4-.49-.8-.78-1.16-.47-.57-1.05-.61-1.66-.18-.71.51-1.16,1.22-1.56,1.97-.65,1.24-1.45,2.36-2.57,3.21-.5.38-1.02.73-1.72.59-.7-.14-1.07-.79-.79-1.46.09-.23.23-.44.37-.64.6-.91,1.21-1.81,1.81-2.72.33-.51.71-1.01.96-1.56.56-1.22,1.04-2.47,1.58-3.69.41-.95.92-1.85,1.28-2.82.47-1.25.87-2.53,1.24-3.81.37-1.26,1.32-1.71,2.49-1.12.83.42,1.65,1.77,1.64,2.95Z"/>
    <path class="st1" d="M152.71,458.65c.13-.71.28-1.55.45-2.39.24-1.15.49-2.3.75-3.45.29-1.3.69-2.56,1.5-3.64.52-.69,1.08-.77,1.81-.28.75.51,1.23,1.2,1.4,2.08.11.53.18,1.06.27,1.59.15.89.58,1.14,1.46.94,1.01-.23,2.02-.47,3.05-.57.57-.06,1.19.07,1.75.25.58.18.8.69.69,1.3-.24,1.41-1.28,2.3-2.73,2.34-1.48.04-2.88.45-4.2,1.09-.59.28-.97.79-1.06,1.46-.21,1.55-1.29,2.44-2.52,3.16-.88.51-2.06-.18-2.3-1.33-.16-.78-.2-1.58-.31-2.53Z"/>
    <path class="st1" d="M188.89,456.27c-.12.61-.22,1.2-.36,1.77-.37,1.51-.3,3.03-.24,4.56,0,.2.04.41.04.61-.05,1.72.12,3.43.4,5.13.17,1.02.12,2.03-.39,2.98-.45.83-1.43,1.31-2.36,1.14-.76-.14-1.35-.71-1.46-1.48-.08-.59-.1-1.19-.1-1.78.01-1.73.06-3.46.07-5.19,0-.66-.46-1.18-1.11-1.34-.44-.1-.89-.19-1.33-.28-.89-.18-1.47-.74-1.87-1.51-.2-.39-.12-1.02.24-1.28.5-.36,1.05-.68,1.61-.96.65-.33,1.33-.59,1.98-.92.51-.25.82-.67.91-1.26.07-.45.16-.89.28-1.32.24-.86.77-1.33,1.49-1.37.71-.04,1.71.59,1.94,1.28.13.4.18.82.26,1.22Z"/>
    <path class="st1" d="M178.5,455.59c-.13.26-.23.58-.41.85-1.29,1.88-1.2,4.43.23,6.22.43.53.83,1.09,1.27,1.61,1.06,1.26.3,2.61-.64,3.27-.46.32-1.11.25-1.48-.16-.36-.4-.65-.85-.97-1.28-.22-.29-.41-.6-.67-.85-.39-.38-.99-.36-1.31.08-.35.46-.63.98-.9,1.49-.51.97-1.16,1.81-1.99,2.51-.47.4-1.01.58-1.61.57-.48,0-.92-.18-1.13-.63-.22-.47-.21-.98.11-1.41.36-.49.83-.92,1.12-1.45.44-.8.75-1.66,1.16-2.48.67-1.34,1.06-2.76,1.41-4.21.3-1.24.79-2.43,1.2-3.64.17-.51.35-1.02.53-1.53.48-1.32,1.63-1.69,2.74-.83.44.34.8.79,1.16,1.23.12.14.13.37.22.65Z"/>
    <path class="st1" d="M232.11,462.56c-1.88.03-4.06-1.31-4.5-3-.49-1.88-.39-3.73.97-5.35,1.46-1.76,3.3-2.92,5.37-3.79.24-.1.5-.16.76-.17.62-.04,1.02.26,1.21.85.23.73.02,1.38-.36,1.99-.02.04-.05.07-.08.11-.56.78-.5.93.41,1.1,2.04.39,2.88,1.88,2.36,3.98-.34,1.37-1.3,2.22-2.26,3.12-1.12,1.04-2.49,1.11-3.88,1.16ZM234.57,455.21s.04,0,.06,0c0-.15,0-.29,0-.44,0-.3-.16-.5-.44-.48-.69.05-1.4.08-2.07.24-.6.14-1.03.58-1.24,1.2-.38,1.14-.19,2.2.54,3.13.64.82,2.12.87,2.88.16.68-.64.69-1.44.56-2.26-.08-.51-.19-1.03-.28-1.54Z"/>
    <path class="st1" d="M139.91,462.72c-.68.13-1.37.23-2.04.4-.82.21-2.32-.29-2.81-.99-.38-.54-.22-1.29.42-1.59.56-.26,1.18-.41,1.78-.58.48-.14.98-.21,1.44-.37,1.22-.43,1.81-1.66,1.37-2.81-.31-.81-1.07-1.28-1.92-1.07-.76.19-1.47.56-2.23.77-.42.12-.9.2-1.31.12-.56-.11-.89-.93-.69-1.51.3-.89,1-1.39,1.82-1.72,1.68-.66,3.42-.86,5.21-.56,1.01.17,2.02.31,3.01.56.85.22,1.63.63,2.21,1.33.36.43.42.82.1,1.27-.35.49-.76.97-1.21,1.37-.79.7-1.26,1.54-1.45,2.57-.14.74-.44,1.4-.97,1.97-.61.66-1.32.98-2.21.93-.16,0-.32,0-.48,0,0-.04-.01-.07-.02-.11Z"/>
    <path class="st1" d="M48.36,474.15c.2-.68.39-1.36.6-2.04.24-.75.47-1.5.75-2.23.15-.39.34-.77.58-1.11.27-.37.68-.29.86.13.14.32.22.66.32,1,.36,1.15,1,1.5,2,.85,1.41-.91,3-.99,4.56-1.25,1.08-.18,2.08-.57,3.05-1.04.65-.31,1.32-.63,2.02-.82.94-.26,1.67.3,1.81,1.27.28,1.96-1.24,3.97-3.21,4.21-.95.11-1.92.18-2.88.17-2.12-.03-3.98.81-5.83,1.67-.46.21-.85.56-1.26.86-.73.53-1.52.66-2.31.24-.71-.38-.99-1.08-1.06-1.91Z"/>
    <path class="st1" d="M67.81,468.7c-.04-.55.2-1.02.56-1.38.53-.52,1.09-1.02,1.69-1.44,1.62-1.15,2.02-2.36,1.1-4.12-.22-.42-.37-.88-.48-1.34-.14-.55.03-1.07.52-1.38.46-.29,1.01-.23,1.41.09.57.44,1.07.98,1.57,1.51.25.27.45.61.63.94.46.84,1.21,1.2,2.12,1.25,1.3.07,2.59.04,3.84-.46.38-.15.88-.16,1.28-.07.75.18,1.06.98.71,1.68-.72,1.47-1.93,2.16-3.54,2.35-1.68.2-3.35.5-5.01.8-1.54.27-2.83.98-3.71,2.32-.11.17-.27.3-.41.45-.36.37-.77.69-1.31.49-.55-.2-.79-.7-.92-1.24-.03-.14-.02-.29-.04-.43Z"/>
    <path class="st1" d="M75.77,451.16c1.02,0,1.95.32,2.89.69.84.33,1.71.56,2.57.83.12.04.25.07.38.1,1.52.39,1.9,1.52,1.41,2.87-.44,1.21-1.14,2.25-2.08,3.14-.86.82-1.9,1.11-3.04,1.11-.79,0-1.25-.52-1.16-1.31.07-.62.23-1.23.36-1.84.23-.99-.26-1.83-1.22-2.15-.95-.31-1.8-.12-2.63.39-1.08.66-2.08.51-2.96-.43-.74-.78-.71-1.87.08-2.54.19-.16.46-.28.7-.31,1.56-.2,3.13-.38,4.69-.56Z"/>
    <path class="st1" d="M195.81,454.2c-.14.79-.31,1.56-.41,2.33-.31,2.55-.64,5.11-.49,7.69.06.94.12,1.89.08,2.83-.03.7-.17,1.41-.36,2.09-.24.86-1.24,1.48-2.14,1.43-.6-.04-1.06-.34-1.23-.89-.19-.62-.34-1.27-.36-1.91-.06-2.2.08-4.39.47-6.56.31-1.77.71-3.53,1.05-5.3.1-.5.1-1.02.24-1.51.15-.52.29-1.1.62-1.49.73-.87,2-.55,2.36.52.08.25.11.51.17.76Z"/>
    <path class="st1" d="M219.31,463.89c.06-.85.17-2.14.22-3.43.03-.69-.03-1.39-.03-2.09,0-.48,0-.96.07-1.43.11-.64.53-.94,1.18-.92.8.02,1.58.17,2.2.73.94.84,1.22,2.08.66,3.36-.42.96-.52,1.91-.51,2.96.01,1.63-.18,3.28-.36,4.91-.1.95-.31,1.89-.53,2.82-.08.33-.28.65-.5.91-.87,1-2.27.74-2.68-.53-.17-.52-.21-1.14-.09-1.67.39-1.7.54-3.42.38-5.6Z"/>
    <path class="st1" d="M59.05,463.93c-.64-.06-1.12-.49-1.43-1.24-.52-1.26-.6-2.55-.4-3.89.21-1.46.32-2.94.53-4.41.15-.99.4-1.97.63-2.94.16-.7.56-1.28,1.07-1.77.56-.54,1.4-.63,2.11-.27.79.4,1.36,1.32,1.23,2.1-.07.43-.15.88-.36,1.25-.67,1.17-.86,2.44-.9,3.74-.05,1.42-.07,2.85,0,4.27.06,1.3-.49,2.21-1.53,2.88-.27.17-.63.2-.94.3Z"/>
    <path class="st1" d="M308.13,452.17c1.6.02,3,.33,4.34.93.29.13.56.32.79.53.56.51.58,1.05.06,1.64-.83.93-1.92,1.17-3.1,1.02-.84-.1-1.67-.35-2.51-.37-.92-.02-1.85.15-2.78.21-.71.04-1.43.09-2.13.02-.77-.08-1.28-.63-1.34-1.29-.06-.69.38-1.43,1.1-1.61,1.88-.48,3.75-1.02,5.58-1.08Z"/>
    <path class="st1" d="M136.01,467.86c-.04-.78.45-1.42.7-2.14.1-.27.21-.54.34-.8.23-.47.6-.52.9-.09.19.27.34.57.49.87.45.89,1.03,1.15,2,.92,1.34-.32,2.52-.98,3.65-1.74.61-.41,1.22-.81,1.99-.82.8-.01,1.26.55,1.12,1.34-.16.88-.78,1.44-1.47,1.86-1.33.81-2.67,1.63-4.08,2.26-.98.43-2.09.66-3.17.79-1.43.17-2.47-.93-2.46-2.45Z"/>
    <path class="st1" d="M319.88,456.27c-1.04-.1-2.33-.04-3.51-.59-.54-.25-1.04-.58-1.11-1.24-.02-.24.05-.58.21-.74.3-.3.67-.56,1.06-.73,1-.43,2.05-.52,3.13-.41.68.07,1.37.07,2.05.13.55.05,1.04.26,1.41.7.42.51.41,1.18-.03,1.67-.87.97-1.47,1.21-3.21,1.2Z"/>
    <path class="st1" d="M307.76,445.91c1.64.09,3.18.43,4.3,1.73.26.3.51.71.56,1.09.15,1.25-1.14,2.2-2.39,1.71-1.21-.48-2.37-1.1-3.52-1.72-.68-.37-.91-1.04-.81-1.79.06-.45.39-.72.79-.84.34-.11.71-.12,1.07-.18Z"/>
  </g>
</svg>