<svg width="125" height="42" viewBox="0 0 125 42" fill="none" xmlns="http://www.w3.org/2000/svg">
<path d="M0.612492 24.9125C0.612492 24.7625 0.762495 24.2626 0.762495 24.0876V22.5125C0.762495 21.7125 1.41249 20.5875 1.73749 19.9125L1.8875 19.4625L2.2375 19.0626L2.4375 18.6126L2.88749 18.2626C3.28749 18.1126 3.7125 17.1375 3.8625 16.7875L4.01249 16.2876L4.5125 15.9376L4.6625 15.6375L5.6375 14.3125C5.6375 14.3125 6.46249 13.6626 6.46249 13.5376L6.8125 13.0876L9.6125 10.2875L10.0125 9.78756L11.1375 8.66254C11.6875 8.31254 11.8875 7.96255 12.1625 7.68755C12.5125 7.53755 13.1375 7.03755 13.4875 6.71255C13.4875 6.56255 14.1375 5.91255 14.1375 5.73755L15.7625 4.11255C16.0625 3.76254 16.5625 3.96255 16.8875 3.96255H17.7125C18.0125 4.11255 18.2625 4.41256 18.3625 4.78756L19.4875 7.06255V8.33755L18.3625 9.51255L17.4125 10.2875C17.2125 10.2875 16.7125 11.0875 16.5375 11.0875L15.7375 11.5876L14.9125 12.4125C14.9125 12.6125 14.0125 13.5875 13.7875 13.6875C13.4875 14.0375 12.9875 14.2376 12.6625 14.5126L10.3875 16.6876L10.2375 16.7875L9.98749 17.1375L8.8625 18.2626L7.2375 19.7876L5.31249 21.7125L4.6125 22.3126L4.36249 22.5125L2.98749 23.9375C1.86249 24.9125 1.2125 26.2126 0.862497 26.6876H0.712494L0.5625 26.5876V24.9125H0.612492ZM11.3875 23.6376C11.5375 22.5126 11.6875 19.4625 11.6875 19.3125C11.6875 19.3125 11.8875 18.6125 11.8875 18.4875C12.0375 17.6125 12.3875 16.2126 13.3125 16.2126H13.6625L14.1625 16.7125C15.1875 17.8375 15.6375 19.3126 15.6375 20.7626C15.6375 21.5876 15.6375 21.8376 15.4375 22.8376L15.2875 23.3376V25.1125L15.1875 25.6126C15.1875 25.8626 14.7875 26.6376 14.7875 26.7376C14.6375 27.0876 14.1375 27.4875 13.9875 27.8625C13.6375 28.6875 14.1375 29.0375 13.0125 29.0375C12.1875 29.0375 12.3625 28.0626 12.1875 27.5626L11.8875 27.0625L11.6875 26.7125V26.6125C11.6875 26.2125 11.3875 24.1126 11.3875 23.8126V23.6625V23.6376ZM13.3125 33.5875C13.3125 33.5875 13.6625 32.7876 13.8125 32.5626C14.3625 31.8126 14.7875 31.1375 15.2875 30.2875L17.9375 26.9376C18.5875 25.9126 21.0375 21.4126 21.7875 21.4126C22.4375 21.4126 22.9125 22.4876 23.2625 22.9376C23.7625 23.7626 23.9125 24.2625 23.9125 25.2625C23.9125 26.0625 23.2625 26.9376 22.9375 27.7376V27.8376L22.4375 28.8625L21.7875 29.6876L21.0625 30.9626L20.2375 31.7875L20.3375 32.1375L20.8375 32.0876H21.6375C23.4625 31.7876 25.2375 30.9625 27.0625 30.5625H27.7125C30.4625 30.2626 33.2875 29.1376 35.8875 28.2876H36.0375C37.9125 27.4876 39.1375 26.3626 40.6625 25.2376L41.8875 24.0626H42.0875V24.2626C41.7875 24.9126 40.9625 25.3876 40.4125 26.0376C39.9125 26.5876 39.6125 27.8126 39.6125 28.5376C39.6125 29.3376 40.1125 30.1626 40.1125 30.9376C40.1125 31.7626 39.9125 32.0625 39.2875 32.7625C39.1375 33.0625 38.3125 33.6876 38.1625 33.8876C37.6625 34.1876 36.6875 34.3876 36.2375 34.5376L34.2625 35.0376C32.9375 35.1876 31.6125 35.0376 30.3125 35.3376C29.8625 35.5376 29.3375 35.6876 28.7375 35.6876H28.3375L27.9875 35.5375L27.4875 35.6876C26.6875 35.8376 25.9625 35.8376 25.0875 36.0376C23.9625 36.1876 22.6625 36.6875 21.4875 36.9625C21.3375 36.9625 21.0875 37.1625 20.8375 37.1625H20.3375L20.2375 37.3126C19.5375 37.7126 18.7625 37.7126 18.0625 37.8126C17.2875 37.9626 16.4375 38.3125 15.4625 38.3125C13.8375 38.3125 13.3375 35.8376 13.3375 34.4126V33.5875H13.3125ZM33.2125 2.61255C33.3625 2.61255 34.0375 2.76254 34.0375 2.76254C34.5375 2.91254 34.8375 3.73754 35.1625 4.28754C35.6625 4.88754 36.1375 5.56255 36.1375 6.36255C36.1375 7.16255 36.1375 7.53755 35.9375 8.33755C35.9375 8.83755 35.6375 9.81256 35.6375 9.81256L35.2875 11.2876L34.9375 11.5876V12.2876L34.4875 12.9376L34.1375 14.5625L33.4375 15.1125V15.4126L32.7875 16.7376C32.2375 17.1876 31.9875 17.8626 31.4625 18.5126L31.3625 18.8126L31.1625 19.5126L30.3375 20.9875L30.1875 21.7875C30.1875 21.7875 29.4875 23.0126 29.3875 23.3626L29.1875 23.5126L28.6875 24.1626L28.5875 24.7126L28.0375 25.3625C27.5375 26.1625 27.5375 27.2876 26.7125 27.8376V27.2876C26.7125 27.1376 26.9125 26.6876 26.9125 26.4876C26.9125 25.8876 27.2125 23.8876 27.2125 23.5376C27.3625 21.6626 27.2125 19.8876 27.5625 17.9126L28.0625 15.9376C28.2125 15.1376 28.9875 12.4875 29.1875 12.1375C29.1875 11.9875 29.4875 11.4875 29.4875 11.3625C30.3125 9.58755 30.6125 7.46255 31.3625 5.63755C31.3625 5.48755 31.8125 3.81254 32.0125 3.66254L32.9875 2.68755H33.1375L33.2125 2.61255Z" fill="white"/>
<path d="M47.7374 25.1625L47.8374 24.8125L47.7374 24.5125V24.3625C47.7374 24.1625 47.8374 23.7625 47.8374 23.7625L49.5624 20.4125C49.5624 20.2125 49.8124 20.0125 49.9124 19.8625L50.2124 19.7625C50.2124 19.5625 50.6124 19.0625 50.6124 18.9375C50.6124 18.8375 51.0124 18.3875 51.0124 18.3875C51.2624 18.1875 51.5124 18.2875 51.8374 17.9875C52.6624 16.7125 53.7624 15.5875 54.7874 14.3875L57.1874 12.0125L57.6874 11.3125L57.8374 11.0125L58.2374 10.6625H58.5874C58.9874 10.4125 58.8874 9.73752 59.5124 9.73752C59.7624 9.63752 60.6374 8.71253 60.8874 8.46253C61.4374 7.91253 61.5874 7.53753 62.2124 7.53753C62.7624 7.53753 62.9124 7.83753 63.1374 8.18753C63.2874 8.38753 64.3624 9.51253 64.7624 9.86253C65.3624 10.5625 65.3624 10.9375 65.3624 11.8375V12.4875L65.2624 12.6875L64.8624 12.9375L64.5124 13.3375H64.0624L63.7624 13.6375L63.1124 13.8875C62.5624 14.0875 62.5624 14.4375 62.3624 14.7625L62.1624 14.8625L61.7624 15.1625C61.7624 15.1625 61.0374 15.9625 60.8374 16.0375L60.7374 16.3375V16.6375L60.3874 16.7375L60.1874 17.1375C59.9374 17.6875 59.4374 17.9375 59.1624 18.6125C59.3124 18.6125 59.9624 18.8625 60.1124 18.8625L60.4124 19.1125H60.7624L61.3124 19.3625C61.3124 19.3625 61.9124 19.6125 62.0874 19.6125L62.4874 20.0625L62.9874 20.1625C63.2874 20.2625 64.3624 21.2375 64.5124 21.4875C64.7624 21.6375 65.3374 22.4375 65.4874 22.5125L65.6374 22.6125C65.6374 22.8125 66.0374 23.2625 66.0374 23.4125C66.0374 23.6125 66.6874 23.9625 66.6874 24.0625V24.4125C66.6874 25.0625 66.0374 25.4375 65.3624 25.4375C64.3874 25.4375 63.1374 25.1375 62.2124 24.7875C61.7124 24.5375 61.1874 24.1875 60.6374 24.0375C60.5374 24.0375 59.9874 23.9375 59.9124 23.9375C59.9124 23.9375 59.5124 23.6875 59.3624 23.6875L59.2124 23.5875H59.1124L58.6624 23.6875C58.6624 23.6875 58.5624 23.5875 58.5624 23.3875H57.3374L57.2874 23.2375C56.8874 22.5875 56.1124 21.8125 55.2124 21.8125C55.0124 21.8125 54.0374 22.6125 53.7374 22.7875C53.4374 23.0375 52.6624 23.6625 52.5624 23.6625L52.0624 23.7625C51.4624 23.9125 51.7124 24.3625 51.3624 24.7375C51.2124 24.7875 50.4874 25.5625 50.3374 25.7625C50.1374 25.9625 49.5624 26.3625 49.1624 26.3625C48.5124 26.3625 47.9874 25.8625 47.7374 25.3875V25.1375V25.1625ZM70.3374 25.6125C70.4374 23.9375 70.9874 22.4125 71.0874 20.6375V17.5375C71.0874 16.6375 71.7874 16.7375 72.0624 15.8125L74.0374 8.51252C74.2374 7.71252 74.3874 7.08753 74.5374 6.28753L74.6374 5.78753C74.8374 5.28753 74.8874 4.46252 74.8874 4.46252C74.8874 4.31252 74.6374 2.58753 74.6374 2.53753V2.18753C74.6374 2.18753 74.3874 1.21252 74.2374 1.01252C74.3874 0.512524 74.5374 0.212524 75.0624 0.212524C75.7124 0.212524 76.8374 0.762525 77.2374 1.28753C77.6874 1.98753 77.6874 2.56252 77.6874 3.31252C77.6874 4.83752 77.5374 6.41253 77.2374 7.83753C77.2374 8.08753 76.6874 10.4375 76.6874 10.6875C76.6874 10.9375 75.9874 13.1375 75.9874 13.4375C75.9874 13.6375 75.7374 15.2125 75.6374 15.6125V15.9125H76.8124L77.2124 15.7625C77.2124 15.7625 77.9124 15.6125 78.0124 15.6125C78.3124 15.6125 79.8374 15.0125 80.1374 15.0125C80.9374 14.8125 81.8124 14.8125 82.6374 14.6125C82.7374 14.6125 83.2874 14.3625 83.3874 14.3625C83.7874 14.2125 84.7624 13.6125 84.8624 13.6125V13.8125C84.4124 14.6125 83.9874 15.1875 83.3874 15.9875C83.2874 16.1875 82.3624 17.7125 82.3624 17.8625C82.3624 17.9625 82.4624 17.9625 82.4624 18.2625C82.4624 18.3625 82.2624 18.6125 82.1124 18.6125L82.3624 18.8125V19.0625L82.2624 19.3125V19.8625L81.8124 20.1125V20.2125C81.8124 20.6125 82.2624 20.7625 82.2624 20.7625C82.2624 21.2125 81.6124 21.4625 81.4374 21.5875C81.0874 21.9875 81.1874 22.0875 80.7874 22.3875C80.5374 22.5875 79.9874 22.5875 79.7624 22.5875C79.5374 22.5875 78.7874 22.7875 78.7374 22.7875H78.1874C78.0374 22.7875 77.6374 22.8375 77.5374 22.8375C77.5374 22.8375 77.2374 23.0375 77.1374 23.0375L76.8374 23.1875C76.3874 23.1875 75.9624 22.5875 75.6124 22.4875L75.2624 22.5875H75.2124C75.2124 22.5875 74.8124 22.0875 74.6124 21.9875H74.0124C74.0124 22.1875 73.6624 23.7625 73.6624 24.0125V24.5125L73.6124 24.8125C73.6124 25.0125 73.4624 25.1625 73.4624 25.4125C73.4624 25.5125 73.2624 26.5375 73.2624 26.6875C73.2624 26.7375 73.2124 27.4875 73.0124 27.7125L72.9124 28.1125V29.0625C72.7624 30.3375 72.6124 31.6125 72.6124 32.8625V33.9375C72.6124 34.1375 72.9124 35.5625 72.9124 35.8625C73.2624 35.9125 73.2624 36.4625 73.2624 36.8375C73.2624 36.9875 73.0124 36.9875 72.9124 36.9875C72.4124 36.9875 71.7374 35.5625 71.4874 35.0625C70.7124 33.1875 70.2124 31.2625 70.2124 29.3125C70.2124 27.9875 70.2124 26.9875 70.3124 25.6125H70.3374Z" fill="white"/>
<path d="M113.512 26.9377C113.512 26.7377 113.712 25.9127 113.712 25.8627L113.912 24.6377C114.012 23.9127 114.362 23.7627 114.462 22.9627V22.8627C114.062 22.8627 112.637 24.4877 112.287 24.8877L111.312 25.5877H111.262L109.837 26.7627L109.287 27.0627C108.987 27.4627 108.737 27.6127 108.412 27.8377C105.912 29.1127 105.412 29.0627 104.862 29.3627C104.137 29.8627 103.737 29.7127 101.812 30.1877L99.9874 30.6877H99.8374C99.1874 30.7877 98.7124 30.9377 97.0874 31.3877C96.9874 31.3377 96.1124 31.6877 95.9624 31.6877L95.3624 31.6377C95.2124 31.6377 94.9624 31.3377 94.8124 31.2877C94.4124 31.1377 94.0374 31.0377 93.7374 30.8377C93.6374 30.8377 93.2374 30.1877 92.9874 29.9127C92.9874 29.9127 92.8874 29.6627 92.7874 29.4627C92.6374 29.3627 92.5874 29.0627 92.5874 29.0627C92.6374 29.0127 92.3374 27.8377 92.3374 27.7377C92.3874 27.5877 92.1874 27.0377 92.1874 27.0127L92.2374 26.6627C92.3874 25.2877 92.8374 24.0127 93.3624 22.8627C93.7124 21.8877 94.3124 20.9877 94.8874 20.1127L96.2624 17.6127C96.2624 17.6127 96.6624 17.2627 96.6624 17.1627C97.0124 16.7127 97.1624 16.2377 97.3874 15.7377C97.7374 15.2877 98.3374 14.3627 98.3624 13.9627L98.4624 13.5627C98.4624 13.2627 97.7374 13.1127 97.5874 12.9127C97.3874 12.9127 96.8624 12.3627 96.7124 12.3627L96.3624 12.1127L95.9624 11.7627C95.5124 11.3127 95.0874 11.1627 94.9374 10.4377C94.9874 9.68767 95.0374 9.01266 95.6374 8.41266L96.0374 8.21265L97.0124 7.46266L97.2124 7.41265L99.1374 6.81266L99.4874 6.66267C99.6374 6.66267 100.212 6.51266 100.312 6.56266C102.237 6.11266 104.287 5.91266 106.412 6.21266L106.712 6.31267C107.512 6.56267 107.887 6.41267 108.537 6.76267C108.737 6.91267 108.737 7.06265 109.037 6.96265L110.462 7.73767C110.462 7.73767 110.712 8.23766 110.712 8.43766L110.662 8.93766C110.562 9.71266 110.062 10.1127 109.387 10.6627L109.037 10.7127L108.162 11.4377C107.962 11.5877 107.187 11.9377 107.137 11.9377C106.487 12.0877 105.862 12.3377 105.112 12.4377C104.812 12.4877 104.087 12.8377 104.087 12.8377C104.087 12.8377 103.737 13.1377 103.737 13.2377C103.387 13.9377 103.037 14.3127 102.562 14.8127C102.162 15.5627 101.737 16.6377 101.387 17.3127L101.437 17.3627C101.837 17.4127 102.862 17.1127 103.212 17.0127C104.737 16.9627 106.512 16.7627 108.137 17.0127C108.237 16.8127 108.737 16.7127 108.912 16.7127L109.412 16.7627C109.812 16.8127 110.162 16.9127 110.112 17.4127C110.112 17.7627 109.962 18.0627 109.762 18.2877L109.712 18.4377C109.562 18.3377 109.212 18.6377 109.212 18.6377C107.987 19.0377 106.512 19.4627 105.412 20.3127C104.712 20.7627 104.187 21.2877 103.337 21.5377C103.237 21.4877 102.537 21.9377 102.412 21.8377C101.087 22.3877 100.087 22.7127 99.1124 23.7127L97.7874 25.1377V25.2877C97.7874 25.4377 97.8874 25.5377 97.9874 25.5377H98.1874C101.037 25.5377 103.812 24.2627 106.612 23.4627C107.012 23.4127 110.262 22.5377 110.662 22.3877C112.837 21.7877 114.987 21.0127 116.087 19.0377L116.337 18.4377C116.987 16.2127 118.062 14.1127 118.412 11.8377C118.462 10.8127 118.612 9.18766 118.212 8.23766C118.062 8.13766 117.462 6.76265 117.387 6.61265L117.187 5.96267C116.787 5.03767 116.462 4.63766 116.637 3.51266C116.687 2.76266 117.137 2.68765 117.862 2.76265C118.562 2.76265 119.387 3.41267 119.887 4.08767C119.887 4.08767 120.137 4.48766 120.137 4.68766L120.237 4.88767C120.387 5.03767 120.937 5.66266 120.937 5.81266C120.937 5.91266 121.087 6.36266 121.037 6.63766L121.187 7.71266C121.587 8.68766 121.437 10.1377 121.287 11.2627C120.937 14.0127 120.012 16.5877 118.962 19.0377C118.412 20.1627 117.537 21.9877 117.387 23.2127L117.687 23.2627C117.687 23.2627 118.237 22.9627 118.337 22.9627L120.062 22.7627C121.587 22.4627 123.112 21.6377 124.437 20.5877V20.8877C124.387 21.6127 123.887 22.0627 123.712 22.7127V23.2127L123.512 23.3127C122.862 24.2377 122.587 25.2377 121.787 26.1627C121.687 26.3627 121.287 26.5127 120.987 26.5627C120.262 26.9127 119.962 26.9627 119.112 27.0127C118.762 26.9627 117.287 27.0127 117.137 26.9627L116.337 26.9127C116.137 26.9127 116.037 27.2627 116.037 27.4127C115.687 28.9877 115.587 30.3627 115.312 31.9877L115.012 34.6377C115.212 36.2626 114.762 37.8377 114.612 39.5627C114.612 39.6627 114.762 41.0877 114.762 41.2377L114.712 41.2877C113.962 41.2377 113.837 40.0127 113.762 39.4627C112.987 35.5127 112.937 32.0877 113.362 28.1377L113.562 26.8627L113.512 26.9377Z" fill="white"/>
</svg>
